<?xml version="1.0" encoding="UTF-8"?>
<!DOCTYPE svg PUBLIC "-//W3C//DTD SVG 1.1//EN" "http://www.w3.org/Graphics/SVG/1.1/DTD/svg11.dtd">
<svg version="1.2" width="328.13mm" height="326.63mm" viewBox="0 0 32813 32663" preserveAspectRatio="xMidYMid" fill-rule="evenodd" stroke-width="28.222" stroke-linejoin="round" xmlns="http://www.w3.org/2000/svg" xmlns:ooo="http://xml.openoffice.org/svg/export" xmlns:xlink="http://www.w3.org/1999/xlink" xmlns:presentation="http://sun.com/xmlns/staroffice/presentation" xmlns:smil="http://www.w3.org/2001/SMIL20/" xmlns:anim="urn:oasis:names:tc:opendocument:xmlns:animation:1.0" xml:space="preserve">
 <defs class="ClipPathGroup">
  <clipPath id="presentation_clip_path" clipPathUnits="userSpaceOnUse">
   <rect x="0" y="0" width="32813" height="32663"/>
  </clipPath>
  <clipPath id="presentation_clip_path_shrink" clipPathUnits="userSpaceOnUse">
   <rect x="32" y="32" width="32748" height="32598"/>
  </clipPath>
 </defs>
 <defs class="TextShapeIndex">
  <g ooo:slide="id1" ooo:id-list="id3 id4 id5 id6 id7 id8 id9 id10 id11 id12 id13 id14 id15 id16 id17 id18 id19 id20 id21 id22"/>
 </defs>
 <defs class="EmbeddedBulletChars">
  <g id="bullet-char-template(57356)" transform="scale(0.00048828125,-0.00048828125)">
   <path d="M 580,1141 L 1163,571 580,0 -4,571 580,1141 Z"/>
  </g>
  <g id="bullet-char-template(57354)" transform="scale(0.00048828125,-0.00048828125)">
   <path d="M 8,1128 L 1137,1128 1137,0 8,0 8,1128 Z"/>
  </g>
  <g id="bullet-char-template(10146)" transform="scale(0.00048828125,-0.00048828125)">
   <path d="M 174,0 L 602,739 174,1481 1456,739 174,0 Z M 1358,739 L 309,1346 659,739 1358,739 Z"/>
  </g>
  <g id="bullet-char-template(10132)" transform="scale(0.00048828125,-0.00048828125)">
   <path d="M 2015,739 L 1276,0 717,0 1260,543 174,543 174,936 1260,936 717,1481 1274,1481 2015,739 Z"/>
  </g>
  <g id="bullet-char-template(10007)" transform="scale(0.00048828125,-0.00048828125)">
   <path d="M 0,-2 C -7,14 -16,27 -25,37 L 356,567 C 262,823 215,952 215,954 215,979 228,992 255,992 264,992 276,990 289,987 310,991 331,999 354,1012 L 381,999 492,748 772,1049 836,1024 860,1049 C 881,1039 901,1025 922,1006 886,937 835,863 770,784 769,783 710,716 594,584 L 774,223 C 774,196 753,168 711,139 L 727,119 C 717,90 699,76 672,76 641,76 570,178 457,381 L 164,-76 C 142,-110 111,-127 72,-127 30,-127 9,-110 8,-76 1,-67 -2,-52 -2,-32 -2,-23 -1,-13 0,-2 Z"/>
  </g>
  <g id="bullet-char-template(10004)" transform="scale(0.00048828125,-0.00048828125)">
   <path d="M 285,-33 C 182,-33 111,30 74,156 52,228 41,333 41,471 41,549 55,616 82,672 116,743 169,778 240,778 293,778 328,747 346,684 L 369,508 C 377,444 397,411 428,410 L 1163,1116 C 1174,1127 1196,1133 1229,1133 1271,1133 1292,1118 1292,1087 L 1292,965 C 1292,929 1282,901 1262,881 L 442,47 C 390,-6 338,-33 285,-33 Z"/>
  </g>
  <g id="bullet-char-template(9679)" transform="scale(0.00048828125,-0.00048828125)">
   <path d="M 813,0 C 632,0 489,54 383,161 276,268 223,411 223,592 223,773 276,916 383,1023 489,1130 632,1184 813,1184 992,1184 1136,1130 1245,1023 1353,916 1407,772 1407,592 1407,412 1353,268 1245,161 1136,54 992,0 813,0 Z"/>
  </g>
  <g id="bullet-char-template(8226)" transform="scale(0.00048828125,-0.00048828125)">
   <path d="M 346,457 C 273,457 209,483 155,535 101,586 74,649 74,723 74,796 101,859 155,911 209,963 273,989 346,989 419,989 480,963 531,910 582,859 608,796 608,723 608,648 583,586 532,535 482,483 420,457 346,457 Z"/>
  </g>
  <g id="bullet-char-template(8211)" transform="scale(0.00048828125,-0.00048828125)">
   <path d="M -4,459 L 1135,459 1135,606 -4,606 -4,459 Z"/>
  </g>
  <g id="bullet-char-template(61548)" transform="scale(0.00048828125,-0.00048828125)">
   <path d="M 173,740 C 173,903 231,1043 346,1159 462,1274 601,1332 765,1332 928,1332 1067,1274 1183,1159 1299,1043 1357,903 1357,740 1357,577 1299,437 1183,322 1067,206 928,148 765,148 601,148 462,206 346,322 231,437 173,577 173,740 Z"/>
  </g>
 </defs>
 <defs class="TextEmbeddedBitmaps"/>
 <g>
  <g id="id2" class="Master_Slide">
   <g id="bg-id2" class="Background"/>
   <g id="bo-id2" class="BackgroundObjects"/>
  </g>
 </g>
 <g class="SlideGroup">
  <g>
   <g id="container-id1">
    <g id="id1" class="Slide" clip-path="url(#presentation_clip_path)">
     <g class="Page">
      <g class="com.sun.star.drawing.PolyPolygonShape">
       <g id="id3">
        <rect class="BoundingBox" stroke="none" fill="none" x="2953" y="795" width="27587" height="30799"/>
       </g>
      </g>
      <g class="com.sun.star.drawing.ClosedBezierShape">
       <g id="id4">
        <rect class="BoundingBox" stroke="none" fill="none" x="2954" y="795" width="27585" height="30798"/>
        <path fill="rgb(0,0,0)" stroke="none" d="M 29404,8800 C 29409,8749 29395,8684 29420,8660 29600,8494 29380,8460 29328,8374 29244,8236 29168,8351 29099,8396 29028,8441 28958,8496 28904,8561 28733,8772 28508,8816 28300,8681 28011,8495 27858,8647 27706,8851 27523,9099 27326,9325 27004,9392 26969,9400 26918,9425 26910,9451 26826,9767 26493,9865 26334,10127 26173,10399 25844,10442 25548,10491 25505,10499 25443,10405 25419,10507 25404,10577 25381,10665 25460,10716 25498,10741 25550,10742 25595,10759 25794,10835 25975,11195 25924,11402 25915,11444 25898,11489 25860,11474 25699,11405 25568,11522 25421,11540 25051,11584 24679,11601 24310,11629 23970,11655 23640,11700 23300,11651 23049,11615 22907,11472 22901,11221 22896,11044 22832,10871 22887,10686 22926,10551 22834,10401 22709,10417 22552,10437 22302,10464 22284,10650 22242,11077 22210,11512 22271,11942 22310,12226 22159,12284 21929,12279 21699,12274 21445,12172 21256,12195 20602,12275 20059,11964 19472,11814 19332,11777 19184,11691 19124,11542 19077,11429 18986,11407 18899,11351 18611,11170 18331,11299 18050,11340 17818,11374 17577,11405 17405,11232 17308,11136 17212,11112 17102,11065 16785,10924 16408,10905 16141,10669 15902,10457 15633,10315 15348,10189 15211,10127 15073,10066 14941,9994 14816,9925 14763,9844 14810,9671 14951,9145 15142,8659 15621,8372 15597,8276 15530,8264 15481,8250 14986,8114 14710,7626 14223,7474 14132,7445 14047,7352 13995,7266 13918,7142 13871,7060 13720,7189 13633,7264 13587,7174 13575,7091 13517,6698 13433,6315 13258,5955 13206,5846 13301,5780 13385,5730 13452,5691 13510,5695 13537,5785 13623,6057 13768,6048 13951,5872 14013,5812 14085,5772 14173,5753 14242,5740 14295,5675 14262,5601 14186,5430 14127,5253 14071,5075 14027,4936 13810,4948 13717,4811 13602,4642 13866,4531 13763,4376 13758,4368 13758,4357 13756,4348 13707,4182 13800,4088 13940,4118 14198,4171 14258,4042 14282,3835 14288,3783 14322,3717 14363,3691 14638,3515 14812,3273 14881,2952 14920,2772 15046,2600 14870,2422 14645,2193 14282,2048 14065,2098 13702,2183 13295,2193 12958,2453 12792,2583 12472,2773 12298,2367 12281,2326 12185,2301 12122,2296 11911,2280 11778,2176 11683,1987 11611,1845 11502,1712 11357,1637 11131,1522 10963,1340 10782,1173 10589,995 10461,688 10102,846 10071,860 10017,817 9972,807 9668,736 9441,1003 9151,992 9156,1245 8977,1135 8879,1111 8727,1075 8592,1081 8478,1183 8317,1331 8161,1485 8016,1648 7862,1821 7921,2075 8126,2088 8331,2102 8453,2206 8581,2337 8726,2486 9034,2461 9038,2765 9038,2776 9089,2783 9113,2797 9341,2930 9352,3047 9143,3222 9028,3320 8906,3410 8781,3495 8699,3550 8663,3620 8678,3711 8748,4125 8743,4545 8771,4962 8782,5116 8852,5203 9004,5240 9241,5296 9412,5521 9681,5508 9724,5507 9762,5561 9761,5613 9756,5810 9903,5848 10044,5911 10156,5962 10327,5987 10321,6153 10313,6326 10148,6322 10024,6361 9667,6473 9626,6577 9614,6947 9608,7167 9683,7424 9414,7605 9243,7720 9091,7921 9023,8116 8946,8337 8831,8475 8626,8552 8489,8605 8407,8701 8367,8836 8302,9059 8166,9237 8027,9417 7754,9771 7321,9966 7106,10375 6842,10879 6311,10769 5883,10894 5801,10919 5753,10826 5713,10765 5556,10519 5393,10496 5206,10739 5052,10936 4882,11111 4706,11285 4571,11416 4457,11561 4518,11761 4581,11965 4769,12027 4947,12039 5138,12050 5139,12140 5113,12276 5098,12360 5084,12445 5069,12529 5021,12802 5097,13001 5396,13059 5476,13075 5558,13104 5568,13185 5616,13590 5877,13942 5866,14360 5863,14437 6009,14529 5846,14596 5706,14654 5542,14767 5421,14654 5274,14517 5143,14550 5008,14609 4787,14704 4571,14656 4344,14649 4033,14636 3665,14419 3419,14816 3380,14879 3297,14870 3234,14859 2937,14805 2928,14966 2975,15184 3118,15180 3198,15018 3362,15041 3293,15160 3139,15193 3180,15359 3279,15758 4100,16261 4499,16156 4718,16099 4938,16044 5157,15988 5169,16009 5182,16029 5193,16049 5087,16143 4982,16239 4873,16329 4563,16586 4200,16656 3810,16623 3743,16618 3697,16475 3623,16553 3543,16640 3637,16735 3689,16803 4067,17303 4457,17794 4894,18245 4989,18344 5132,18396 5249,18476 5312,18518 5372,18513 5439,18500 5796,18434 6136,18328 6461,18164 6732,18026 6873,17819 6904,17520 6927,17299 6936,17073 7036,16864 7348,17015 7009,17516 7493,17579 7236,17810 7193,18029 7344,18308 7423,18451 7531,18640 7438,18815 7196,19271 7248,19748 7308,20228 7312,20261 7272,20309 7356,20326 7472,20350 7516,20434 7451,20495 7283,20655 7391,20815 7431,20968 7557,21460 7734,21944 7747,22455 7764,23187 8108,23807 8437,24412 8704,24902 8958,25387 9064,25930 9169,26467 9281,27004 9608,27443 10211,28255 10549,29173 10769,30140 10916,30782 11298,31227 11850,31537 12170,31718 12771,31423 12805,31064 12832,30777 12978,30651 13228,30583 13410,30533 13590,30476 13778,30419 13757,30388 13718,30356 13708,30316 13643,30067 14151,29364 14407,29365 14655,29367 14733,29290 14688,29032 14643,28780 14705,28510 14651,28264 14538,27748 14831,27355 15020,26939 15122,26715 15156,26492 15195,26263 15221,26107 15053,26079 14986,25985 14891,25853 15218,25909 15111,25714 14901,25337 15017,24902 14957,24497 14920,24247 15042,24032 15193,23849 15337,23674 15520,23550 15753,23720 15855,23794 15886,23704 15923,23648 16003,23530 16068,23403 16150,23287 16220,23184 16317,23062 16443,23095 16731,23173 16932,22988 17168,22905 17242,22879 17305,22839 17288,22742 17216,22286 17563,22133 17868,21970 18018,21890 18145,21801 18226,21660 18362,21423 18560,21248 18769,21081 19265,20683 19601,20158 19937,19629 20007,19520 20062,19188 20329,19470 20347,19489 20420,19469 20462,19454 20762,19353 21061,19229 21270,18990 21474,18758 21695,18485 21570,18151 21465,17870 21579,17749 21794,17635 22122,17460 22550,17425 22690,16970 22714,17276 22842,17285 23029,17141 23094,17093 23161,17064 23239,17076 23472,17110 23464,16959 23435,16810 23390,16579 23290,16351 23284,16120 23274,15751 23086,15475 22911,15181 22859,15094 22852,14994 22912,14888 23074,14605 23051,14552 22746,14419 22622,14364 22519,14284 22431,14179 22367,14104 22352,14014 22420,13946 22586,13784 22710,13569 22949,13490 23009,13470 23099,13501 23122,13421 23152,13320 23032,13317 22989,13264 22947,13216 22887,13181 22830,13152 22300,12881 22269,12779 22572,12289 22582,12274 22601,12261 22607,12244 22651,12129 22689,12107 22770,12194 22854,12281 22972,12352 23032,12262 23144,12100 23194,12214 23252,12280 23335,12372 23409,12470 23526,12522 23592,12552 23652,12579 23686,12485 23707,12426 23706,12335 23795,12351 23870,12364 23874,12455 23887,12514 23926,12669 23982,12829 23974,12982 23960,13221 24044,13334 24279,13342 24421,13347 24564,13365 24706,13365 25153,13367 25600,13364 26048,13362 26231,13361 26358,13351 26300,13637 26224,14007 26046,14256 25726,14417 25391,14585 25313,14825 25408,15174 25465,15384 25680,15420 25746,15593 25769,15651 25795,15701 25863,15689 25938,15675 25976,15616 25973,15544 25965,15389 26001,15245 26054,15103 26095,14989 26111,14826 26254,14820 26414,14813 26401,14990 26436,15096 26595,15579 26729,16069 26809,16570 26838,16750 26970,16829 27094,16834 27215,16840 27221,16673 27248,16564 27256,16528 27261,16489 27265,16451 27291,16099 27164,15760 27385,15385 27530,15138 27436,14722 27299,14385 27516,14401 27711,14419 27908,14429 28000,14434 28081,14402 28099,14297 28169,13871 28531,13509 28378,13030 28358,12965 28368,12877 28426,12816 28733,12501 28719,12116 28673,11721 28663,11631 28638,11534 28736,11461 29036,11241 29255,10930 29566,10721 29803,10562 30034,10366 30313,10657 30331,10677 30380,10669 30478,10684 30170,10381 30171,10132 30455,9862 30630,9697 30506,9446 30255,9422 30034,9402 29815,9336 29583,9439 29593,9266 29693,9180 29736,9070 29816,8867 29650,8727 29404,8800 Z"/>
       </g>
      </g>
      <g class="com.sun.star.drawing.PolyPolygonShape">
       <g id="id5">
        <rect class="BoundingBox" stroke="none" fill="none" x="2955" y="795" width="27586" height="30799"/>
       </g>
      </g>
      <g class="com.sun.star.drawing.ClosedBezierShape">
       <g id="id6">
        <rect class="BoundingBox" stroke="none" fill="none" x="2955" y="795" width="27585" height="30798"/>
        <path fill="rgb(90,184,216)" stroke="none" d="M 29403,8800 C 29649,8727 29816,8867 29737,9070 29694,9180 29593,9266 29583,9439 29816,9336 30036,9402 30256,9422 30507,9446 30631,9696 30456,9862 30172,10132 30171,10381 30478,10684 30381,10670 30332,10677 30313,10657 30036,10366 29803,10561 29567,10721 29256,10930 29038,11241 28738,11461 28639,11534 28663,11630 28673,11721 28719,12115 28733,12501 28427,12816 28368,12877 28358,12966 28378,13030 28532,13509 28169,13871 28099,14297 28082,14402 28001,14434 27908,14429 27712,14417 27518,14401 27299,14385 27437,14722 27531,15138 27386,15385 27164,15760 27292,16099 27266,16451 27262,16489 27258,16528 27248,16564 27222,16673 27216,16840 27094,16834 26971,16829 26838,16750 26809,16570 26729,16069 26596,15578 26437,15096 26402,14989 26416,14813 26254,14820 26112,14826 26096,14989 26054,15103 26001,15244 25966,15389 25973,15544 25977,15616 25938,15675 25863,15689 25794,15701 25769,15650 25747,15593 25680,15420 25465,15384 25408,15174 25313,14824 25392,14586 25727,14417 26047,14257 26226,14007 26301,13637 26358,13351 26232,13361 26048,13362 25600,13364 25153,13367 24707,13365 24564,13365 24422,13347 24280,13342 24044,13334 23960,13221 23974,12982 23983,12829 23927,12669 23888,12514 23874,12455 23870,12364 23795,12351 23707,12335 23708,12425 23687,12485 23653,12579 23593,12552 23527,12522 23409,12470 23335,12371 23253,12279 23194,12214 23144,12100 23033,12262 22973,12352 22854,12281 22772,12194 22689,12107 22653,12129 22608,12244 22602,12261 22583,12272 22574,12289 22269,12779 22300,12881 22830,13151 22888,13181 22948,13216 22989,13264 23034,13317 23153,13320 23123,13421 23099,13501 23009,13470 22949,13490 22710,13569 22587,13784 22420,13946 22353,14014 22369,14102 22432,14179 22519,14284 22623,14364 22747,14417 23052,14552 23074,14605 22913,14888 22853,14993 22860,15094 22912,15181 23087,15475 23274,15751 23284,16120 23290,16351 23390,16579 23435,16810 23464,16959 23473,17110 23239,17076 23162,17064 23094,17093 23029,17141 22843,17284 22714,17276 22690,16969 22550,17425 22123,17460 21794,17635 21579,17749 21465,17870 21570,18151 21695,18484 21474,18758 21270,18990 21062,19229 20764,19353 20463,19454 20420,19469 20348,19490 20329,19470 20063,19188 20008,19520 19938,19629 19602,20158 19267,20683 18769,21080 18560,21248 18363,21423 18226,21660 18145,21801 18018,21890 17869,21970 17564,22133 17216,22285 17289,22742 17305,22839 17244,22879 17169,22905 16933,22988 16731,23173 16444,23095 16318,23062 16220,23184 16150,23287 16069,23403 16004,23530 15924,23648 15886,23703 15855,23794 15754,23720 15520,23550 15338,23674 15194,23849 15043,24032 14920,24247 14958,24495 15018,24902 14903,25337 15111,25714 15219,25908 14891,25853 14988,25985 15054,26079 15221,26107 15195,26263 15156,26492 15123,26715 15021,26939 14831,27354 14539,27748 14651,28264 14705,28510 14644,28780 14689,29032 14734,29290 14655,29367 14408,29365 14151,29364 13644,30067 13709,30316 13719,30356 13758,30388 13779,30419 13590,30476 13410,30533 13229,30582 12979,30651 12833,30777 12805,31064 12773,31423 12170,31718 11850,31537 11299,31227 10916,30782 10770,30140 10550,29172 10211,28254 9609,27443 9282,27004 9170,26467 9065,25930 8959,25387 8705,24902 8439,24412 8109,23807 7765,23187 7747,22455 7735,21944 7557,21459 7431,20968 7391,20815 7285,20655 7451,20495 7516,20434 7472,20350 7356,20326 7272,20308 7312,20261 7309,20228 7249,19748 7196,19271 7439,18815 7531,18640 7424,18451 7345,18308 7195,18029 7237,17810 7494,17579 7010,17516 7349,17015 7036,16864 6936,17073 6927,17299 6905,17520 6874,17819 6732,18026 6461,18163 6136,18326 5796,18434 5441,18500 5372,18513 5312,18518 5251,18476 5132,18396 4990,18344 4895,18245 4458,17794 4067,17303 3690,16803 3637,16734 3543,16639 3625,16553 3697,16475 3743,16618 3811,16623 4201,16656 4563,16586 4873,16329 4982,16239 5087,16143 5193,16049 5182,16029 5170,16009 5157,15988 4938,16044 4720,16099 4500,16156 4101,16261 3280,15758 3181,15359 3140,15191 3293,15160 3362,15041 3198,15018 3120,15180 2977,15184 2928,14966 2937,14805 3235,14859 3297,14870 3381,14879 3420,14816 3666,14419 4033,14637 4345,14647 4571,14656 4787,14704 5008,14609 5143,14550 5275,14517 5421,14654 5542,14767 5706,14652 5846,14595 6010,14529 5864,14436 5866,14360 5877,13942 5617,13590 5569,13185 5559,13104 5476,13075 5396,13059 5098,13000 5021,12802 5070,12529 5085,12445 5098,12360 5115,12276 5140,12140 5138,12050 4947,12039 4770,12029 4581,11965 4518,11761 4457,11561 4571,11416 4706,11284 4882,11111 5053,10935 5206,10739 5394,10496 5556,10519 5714,10765 5754,10826 5801,10919 5884,10894 6312,10770 6842,10879 7107,10375 7321,9965 7756,9771 8027,9417 8166,9237 8302,9059 8367,8836 8407,8701 8490,8605 8626,8552 8832,8475 8946,8337 9024,8116 9091,7921 9245,7720 9416,7605 9684,7424 9609,7167 9615,6947 9626,6578 9667,6473 10025,6361 10149,6322 10314,6326 10321,6153 10327,5987 10156,5961 10045,5911 9904,5847 9756,5810 9761,5613 9762,5561 9725,5506 9681,5508 9412,5520 9241,5296 9005,5240 8852,5203 8782,5116 8772,4961 8744,4545 8749,4125 8679,3711 8664,3620 8700,3550 8781,3493 8906,3410 9029,3320 9144,3222 9352,3046 9342,2928 9114,2797 9090,2783 9040,2776 9040,2765 9035,2461 8726,2486 8582,2337 8454,2205 8331,2102 8126,2088 7921,2075 7862,1820 8016,1648 8162,1486 8317,1331 8479,1183 8591,1081 8727,1075 8880,1111 8977,1135 9156,1245 9151,992 9441,1003 9669,736 9972,807 10017,817 10071,860 10102,846 10461,687 10590,995 10782,1172 10964,1340 11131,1522 11357,1637 11502,1712 11611,1845 11684,1987 11779,2176 11912,2280 12123,2296 12185,2301 12281,2326 12300,2367 12473,2772 12793,2583 12959,2453 13295,2193 13703,2182 14065,2098 14283,2048 14645,2193 14870,2422 15048,2600 14920,2772 14883,2952 14813,3273 14639,3515 14364,3691 14323,3718 14289,3783 14283,3835 14259,4042 14199,4171 13940,4118 13801,4088 13708,4182 13756,4348 13759,4357 13759,4368 13764,4376 13866,4531 13604,4642 13718,4811 13810,4948 14028,4936 14071,5073 14128,5253 14186,5430 14263,5601 14295,5676 14243,5740 14174,5753 14085,5772 14014,5812 13953,5872 13769,6048 13624,6057 13539,5785 13510,5695 13453,5691 13385,5730 13301,5780 13206,5846 13259,5955 13435,6315 13518,6698 13575,7091 13588,7174 13634,7262 13721,7189 13871,7060 13920,7142 13995,7266 14048,7352 14133,7445 14224,7474 14710,7626 14986,8114 15481,8250 15530,8264 15598,8276 15621,8372 15143,8659 14951,9145 14810,9671 14764,9844 14816,9925 14941,9994 15074,10066 15211,10127 15349,10189 15634,10315 15903,10457 16141,10669 16410,10905 16785,10924 17103,11065 17213,11112 17310,11136 17406,11232 17578,11405 17819,11374 18050,11340 18331,11300 18611,11170 18899,11351 18986,11407 19078,11429 19124,11542 19185,11691 19334,11777 19473,11814 20059,11964 20603,12275 21257,12195 21445,12172 21699,12272 21930,12279 22160,12284 22312,12226 22272,11942 22210,11512 22243,11077 22284,10650 22303,10464 22553,10437 22709,10417 22835,10401 22928,10551 22888,10686 22833,10871 22897,11044 22902,11221 22909,11472 23049,11615 23300,11651 23640,11700 23972,11655 24310,11629 24679,11601 25052,11582 25422,11539 25568,11522 25699,11405 25860,11474 25898,11490 25916,11444 25926,11402 25976,11194 25794,10835 25595,10759 25552,10741 25498,10741 25460,10716 25382,10665 25403,10577 25419,10507 25443,10405 25505,10499 25548,10491 25845,10442 26173,10399 26334,10127 26493,9865 26827,9767 26911,9451 26917,9425 26969,9400 27004,9392 27328,9326 27522,9099 27707,8850 27858,8647 28012,8495 28301,8681 28509,8816 28733,8772 28904,8561 28958,8496 29028,8441 29099,8396 29168,8351 29244,8236 29328,8374 29381,8460 29601,8494 29421,8660 29394,8684 29408,8749 29403,8800 Z"/>
       </g>
      </g>
      <g class="com.sun.star.drawing.ClosedBezierShape">
       <g id="id7">
        <rect class="BoundingBox" stroke="none" fill="none" x="12144" y="7680" width="5419" height="6001"/>
        <path fill="rgb(0,0,0)" stroke="none" d="M 17261,13679 C 17261,13679 18572,11636 15716,9959 15716,9959 14977,9419 14961,9195 L 14854,7680 14852,7680 14745,9195 C 14730,9419 13991,9959 13991,9959 11135,11636 12445,13679 12445,13679 L 17261,13679 Z"/>
       </g>
      </g>
      <g class="com.sun.star.drawing.ClosedBezierShape">
       <g id="id8">
        <rect class="BoundingBox" stroke="none" fill="none" x="6622" y="13065" width="881" height="897"/>
        <path fill="rgb(0,0,0)" stroke="none" d="M 7453,13960 C 7453,13960 7665,13628 7202,13356 7202,13356 7082,13269 7080,13233 L 7062,13066 7044,13233 C 7042,13269 6922,13356 6922,13356 6459,13628 6671,13960 6671,13960 L 7453,13960 Z"/>
       </g>
      </g>
      <g class="com.sun.star.drawing.ClosedBezierShape">
       <g id="id9">
        <rect class="BoundingBox" stroke="none" fill="none" x="10473" y="12503" width="1915" height="1950"/>
        <path fill="rgb(0,0,0)" stroke="none" d="M 12281,14451 C 12281,14451 12744,13729 11735,13137 11735,13137 11473,12946 11468,12867 L 11430,12504 11429,12504 11392,12867 C 11387,12946 11125,13137 11125,13137 10117,13730 10579,14451 10579,14451 L 12281,14451 Z"/>
       </g>
      </g>
      <g class="com.sun.star.drawing.PolyPolygonShape">
       <g id="id10">
        <rect class="BoundingBox" stroke="none" fill="none" x="10461" y="14526" width="1933" height="849"/>
        <path fill="rgb(0,0,0)" stroke="none" d="M 11427,15374 L 10461,15374 10461,14527 12392,14527 12392,15374 11427,15374 Z"/>
       </g>
      </g>
      <g class="com.sun.star.drawing.PolyPolygonShape">
       <g id="id11">
        <rect class="BoundingBox" stroke="none" fill="none" x="9021" y="14855" width="513" height="713"/>
        <path fill="rgb(0,0,0)" stroke="none" d="M 9532,15519 L 9021,15567 9021,14856 9532,14856 9532,15519 Z"/>
       </g>
      </g>
      <g class="com.sun.star.drawing.ClosedBezierShape">
       <g id="id12">
        <rect class="BoundingBox" stroke="none" fill="none" x="22156" y="13160" width="880" height="896"/>
        <path fill="rgb(0,0,0)" stroke="none" d="M 22205,14055 C 22205,14055 21992,13723 22455,13451 22455,13451 22576,13364 22578,13327 L 22595,13161 22613,13327 C 22615,13364 22735,13451 22735,13451 23199,13723 22986,14055 22986,14055 L 22205,14055 Z"/>
       </g>
      </g>
      <g class="com.sun.star.drawing.ClosedBezierShape">
       <g id="id13">
        <rect class="BoundingBox" stroke="none" fill="none" x="17271" y="12598" width="1916" height="1949"/>
        <path fill="rgb(0,0,0)" stroke="none" d="M 17378,14546 C 17378,14546 16915,13824 17924,13232 17924,13232 18185,13041 18191,12961 L 18228,12598 18229,12598 18267,12961 C 18272,13041 18533,13232 18533,13232 19542,13824 19079,14546 19079,14546 L 17378,14546 Z"/>
       </g>
      </g>
      <g class="com.sun.star.drawing.PolyPolygonShape">
       <g id="id14">
        <rect class="BoundingBox" stroke="none" fill="none" x="17264" y="14621" width="1933" height="849"/>
        <path fill="rgb(0,0,0)" stroke="none" d="M 18230,15468 L 17265,15468 17265,14621 19196,14621 19196,15468 18230,15468 Z"/>
       </g>
      </g>
      <g class="com.sun.star.drawing.PolyPolygonShape">
       <g id="id15">
        <rect class="BoundingBox" stroke="none" fill="none" x="20124" y="14950" width="513" height="713"/>
        <path fill="rgb(0,0,0)" stroke="none" d="M 20124,15614 L 20636,15661 20636,14950 20124,14950 20124,15614 Z"/>
       </g>
      </g>
      <g class="com.sun.star.drawing.PolyPolygonShape">
       <g id="id16">
        <rect class="BoundingBox" stroke="none" fill="none" x="6543" y="16689" width="1017" height="1540"/>
        <path fill="rgb(0,0,0)" stroke="none" d="M 7519,16696 L 6595,16690 6543,18219 7558,18227 7519,16696 Z"/>
       </g>
      </g>
      <g class="com.sun.star.drawing.PolyPolygonShape">
       <g id="id17">
        <rect class="BoundingBox" stroke="none" fill="none" x="6598" y="14688" width="920" height="1916"/>
        <path fill="rgb(0,0,0)" stroke="none" d="M 7468,14694 L 6663,14688 6599,16596 7517,16603 7468,14694 Z"/>
       </g>
      </g>
      <g class="com.sun.star.drawing.PolyPolygonShape">
       <g id="id18">
        <rect class="BoundingBox" stroke="none" fill="none" x="6666" y="14017" width="800" height="584"/>
        <path fill="rgb(0,0,0)" stroke="none" d="M 7450,14017 L 6686,14017 6667,14594 7465,14600 7450,14017 Z"/>
       </g>
      </g>
      <g class="com.sun.star.drawing.PolyPolygonShape">
       <g id="id19">
        <rect class="BoundingBox" stroke="none" fill="none" x="22098" y="16784" width="1017" height="1539"/>
        <path fill="rgb(0,0,0)" stroke="none" d="M 23062,16784 L 22138,16791 22098,18321 23114,18314 23062,16784 Z"/>
       </g>
      </g>
      <g class="com.sun.star.drawing.PolyPolygonShape">
       <g id="id20">
        <rect class="BoundingBox" stroke="none" fill="none" x="22140" y="14782" width="920" height="1916"/>
        <path fill="rgb(0,0,0)" stroke="none" d="M 22994,14782 L 22190,14788 22140,16697 23058,16690 22994,14782 Z"/>
       </g>
      </g>
      <g class="com.sun.star.drawing.PolyPolygonShape">
       <g id="id21">
        <rect class="BoundingBox" stroke="none" fill="none" x="22191" y="14112" width="801" height="584"/>
        <path fill="rgb(0,0,0)" stroke="none" d="M 22971,14112 L 22207,14112 22192,14694 22991,14688 22971,14112 Z"/>
       </g>
      </g>
      <g class="com.sun.star.drawing.ClosedBezierShape">
       <g id="id22">
        <rect class="BoundingBox" stroke="none" fill="none" x="6200" y="13832" width="17251" height="6670"/>
        <path fill="rgb(0,0,0)" stroke="none" d="M 23171,20009 L 23116,18409 22096,18416 22056,20009 20797,20009 20797,15727 19362,15571 19362,20009 19299,20009 19299,15546 17265,15546 17265,20009 17191,20009 17191,13832 12471,13832 12471,20009 12392,20009 12392,15452 10358,15452 10358,20009 10295,20009 10295,15476 8861,15632 8861,20009 7604,20009 7560,18321 6540,18313 6483,20009 6200,20009 6200,20500 23450,20500 23450,20009 23171,20009 Z M 19636,17073 C 19641,17038 19645,17004 19654,16970 L 19666,16918 C 19671,16901 19677,16885 19682,16868 19687,16851 19694,16834 19700,16818 19708,16801 19714,16785 19723,16770 19739,16738 19757,16707 19777,16677 19798,16648 19820,16619 19846,16593 19858,16580 19871,16568 19885,16556 19900,16544 19913,16533 19932,16521 L 19955,16507 19977,16519 C 20010,16537 20044,16556 20072,16580 20080,16586 20088,16592 20095,16598 L 20115,16618 C 20129,16631 20143,16644 20154,16660 20179,16688 20199,16721 20218,16753 20235,16786 20250,16820 20262,16855 20286,16926 20299,16998 20304,17071 20304,17089 20305,17107 20304,17127 L 20304,17178 20300,17282 20295,17491 20287,17700 20277,17908 C 20273,17978 20269,18047 20264,18117 20259,18047 20254,17978 20251,17908 L 20241,17700 20233,17491 20227,17282 20224,17178 20224,17125 C 20224,17110 20222,17093 20221,17077 20215,17012 20201,16947 20178,16885 20166,16855 20153,16826 20137,16797 20122,16770 20104,16744 20083,16720 20074,16707 20063,16696 20051,16685 L 20034,16669 C 20028,16664 20021,16659 20015,16655 19998,16640 19978,16629 19958,16618 19954,16621 19950,16625 19946,16628 19934,16638 19923,16648 19912,16659 19890,16680 19871,16705 19852,16730 19834,16756 19818,16783 19804,16811 19796,16825 19790,16839 19783,16854 19777,16868 19771,16883 19766,16898 19760,16913 19754,16928 19750,16943 L 19737,16989 C 19728,17020 19724,17052 19717,17084 19714,17116 19709,17148 19707,17181 19705,17213 19703,17245 19702,17280 19699,17414 19694,17548 19689,17683 19682,17817 19676,17951 19666,18086 19655,17952 19649,17817 19643,17683 19638,17548 19632,17414 19630,17280 19628,17248 19629,17211 19629,17177 19629,17142 19633,17108 19636,17073 Z M 19643,19828 C 19638,19682 19633,19536 19630,19390 19628,19354 19629,19317 19629,19279 19628,19260 19629,19242 19631,19223 L 19635,19167 C 19639,19129 19645,19092 19651,19054 19659,19018 19667,18980 19679,18944 19689,18907 19704,18872 19718,18836 19727,18819 19735,18801 19743,18784 19753,18767 19762,18751 19771,18734 19792,18702 19815,18669 19841,18640 19854,18625 19867,18610 19882,18596 19897,18583 19910,18570 19931,18556 L 19955,18540 19978,18554 20030,18587 C 20049,18598 20063,18614 20080,18626 20096,18639 20109,18654 20123,18669 20138,18684 20150,18700 20162,18717 L 20180,18742 20196,18768 C 20206,18785 20216,18803 20224,18821 20233,18840 20241,18858 20248,18876 20255,18895 20262,18914 20267,18934 20273,18953 20278,18972 20282,18991 20287,19010 20290,19029 20293,19049 20299,19088 20304,19127 20304,19167 20306,19208 20304,19244 20304,19282 L 20301,19395 20296,19622 20287,19848 20281,20009 20248,20009 20241,19848 20233,19622 20227,19395 20224,19282 C 20223,19244 20224,19206 20222,19171 20219,19135 20214,19099 20208,19064 20204,19046 20201,19028 20196,19011 20192,18993 20187,18976 20181,18959 20176,18942 20170,18926 20163,18909 20157,18892 20150,18876 20141,18861 20135,18844 20126,18829 20116,18815 L 20103,18792 20088,18771 C 20078,18757 20067,18744 20055,18732 20043,18720 20032,18706 20018,18696 20004,18686 19992,18673 19977,18665 L 19959,18653 C 19954,18657 19950,18661 19946,18665 19934,18677 19922,18688 19911,18701 19888,18726 19869,18754 19850,18782 L 19824,18827 C 19815,18842 19809,18858 19801,18874 19793,18889 19788,18905 19781,18922 19774,18937 19769,18954 19764,18971 19752,19004 19744,19038 19735,19072 19728,19106 19722,19141 19717,19176 19714,19211 19708,19246 19707,19282 19705,19318 19703,19353 19702,19390 19700,19536 19695,19682 19689,19828 19687,19888 19684,19949 19681,20009 L 19652,20009 C 19649,19949 19645,19889 19643,19828 Z M 17665,17201 C 17664,17159 17674,17118 17680,17077 17682,17056 17691,17037 17696,17016 17704,16997 17707,16976 17717,16957 L 17744,16900 C 17753,16881 17765,16864 17776,16846 L 17793,16820 17812,16795 C 17825,16779 17838,16761 17851,16746 L 17895,16702 C 17910,16687 17926,16674 17941,16660 17957,16646 17974,16634 17991,16622 18007,16610 18024,16598 18042,16587 18059,16575 18077,16565 18095,16555 18112,16544 18131,16535 18150,16526 18187,16508 18223,16492 18265,16477 L 18278,16474 18290,16477 18406,16512 C 18425,16519 18443,16527 18462,16535 18481,16543 18500,16550 18518,16559 L 18572,16587 18599,16601 C 18608,16606 18616,16612 18625,16618 L 18676,16652 18724,16692 C 18740,16703 18754,16719 18769,16734 18783,16749 18798,16765 18809,16782 18822,16799 18836,16814 18846,16832 18856,16851 18869,16868 18877,16887 18886,16907 18895,16925 18901,16945 18909,16964 18915,16985 18920,17005 18925,17025 18929,17046 18931,17067 18934,17089 18935,17109 18933,17134 L 18933,17131 18928,17393 18919,17657 18909,17920 C 18905,18008 18900,18096 18895,18183 18890,18096 18885,18008 18880,17920 L 18871,17657 18862,17393 18856,17131 18856,17127 C 18856,17113 18855,17094 18852,17077 18850,17060 18846,17042 18842,17025 18836,17008 18831,16991 18824,16974 18819,16958 18809,16942 18802,16926 18794,16909 18783,16895 18774,16880 18765,16864 18752,16851 18741,16837 18731,16822 18717,16809 18705,16797 18692,16784 18680,16771 18665,16760 L 18623,16725 18576,16696 C 18568,16691 18561,16685 18553,16680 L 18528,16669 18479,16643 C 18462,16635 18444,16629 18427,16622 L 18375,16601 18280,16573 C 18251,16583 18219,16596 18190,16610 18173,16618 18156,16627 18140,16636 18123,16646 18107,16655 18091,16665 18075,16675 18059,16685 18045,16697 18029,16708 18014,16718 18000,16731 17985,16743 17971,16755 17957,16767 L 17917,16807 C 17903,16820 17893,16835 17881,16849 L 17863,16870 17848,16894 C 17838,16909 17826,16924 17818,16941 L 17793,16990 C 17784,17006 17780,17025 17773,17042 L 17764,17068 C 17761,17077 17757,17086 17756,17095 17750,17132 17738,17168 17738,17205 L 17734,17262 17733,17322 17729,17440 17722,17677 C 17715,17834 17709,17993 17699,18151 17688,17993 17682,17835 17677,17677 L 17669,17440 17665,17322 17664,17263 17665,17201 Z M 17676,19788 L 17668,19545 17665,19424 17663,19363 17665,19301 17665,19269 17666,19254 17668,19238 17678,19174 C 17681,19153 17688,19133 17694,19112 17700,19092 17705,19071 17714,19051 17731,19012 17748,18972 17771,18937 17792,18899 17820,18867 17846,18832 L 17889,18786 C 17904,18770 17921,18757 17937,18742 17953,18728 17969,18715 17986,18703 18003,18690 18020,18677 18038,18666 18055,18654 18073,18642 18091,18632 18110,18621 18128,18611 18147,18602 18185,18582 18222,18566 18265,18550 L 18278,18546 18292,18550 18408,18587 18465,18610 C 18484,18619 18503,18625 18522,18635 L 18576,18665 18603,18679 18629,18697 C 18646,18709 18664,18720 18681,18732 L 18729,18773 C 18745,18786 18758,18803 18773,18818 L 18794,18841 18813,18867 C 18826,18884 18839,18900 18850,18919 18860,18937 18871,18955 18880,18975 18889,18994 18897,19014 18903,19034 18911,19054 18917,19074 18922,19095 18926,19116 18930,19137 18932,19158 18935,19179 18936,19200 18934,19225 L 18934,19221 18928,19493 18920,19764 18911,20009 18880,20009 18870,19764 18862,19493 18855,19221 18855,19219 C 18855,19204 18855,19185 18852,19167 18850,19150 18846,19131 18842,19114 18836,19097 18831,19079 18825,19062 18819,19045 18811,19029 18802,19012 18795,18996 18784,18981 18775,18965 18766,18949 18754,18936 18742,18921 L 18726,18899 18706,18880 C 18693,18867 18681,18853 18667,18842 L 18624,18806 C 18609,18795 18593,18785 18578,18775 L 18555,18759 18530,18746 18480,18719 C 18464,18711 18445,18705 18428,18697 L 18376,18676 18280,18646 C 18251,18657 18219,18671 18189,18686 18172,18694 18155,18704 18139,18713 18121,18723 18105,18733 18089,18744 18072,18754 18056,18765 18041,18777 18026,18788 18010,18800 17997,18813 17967,18837 17941,18865 17914,18892 17890,18922 17864,18950 17845,18983 17823,19014 17808,19049 17791,19083 17783,19100 17778,19119 17772,19137 17766,19154 17759,19172 17756,19191 L 17744,19247 17742,19261 17740,19275 17738,19305 17734,19363 17733,19424 17730,19545 17722,19788 C 17719,19861 17716,19936 17713,20009 L 17685,20009 C 17682,19935 17679,19861 17676,19788 Z M 13439,19922 L 13437,19272 13437,18621 13441,17972 13443,17646 C 13448,17531 13468,17421 13498,17313 13528,17204 13570,17099 13621,16998 13673,16899 13735,16804 13805,16716 13876,16629 13955,16548 14041,16476 14127,16404 14219,16340 14315,16282 14364,16255 14412,16226 14463,16203 L 14538,16167 14614,16134 C 14665,16111 14718,16094 14769,16074 14821,16056 14875,16040 14928,16023 L 14950,16017 14971,16025 C 15024,16047 15070,16070 15118,16096 15166,16121 15212,16148 15257,16175 15348,16232 15434,16294 15517,16362 15599,16429 15677,16503 15749,16582 15822,16660 15889,16744 15948,16834 16006,16922 16061,17015 16105,17113 16149,17210 16188,17310 16216,17413 16246,17516 16265,17621 16280,17726 16291,17832 16298,17938 16295,18044 L 16291,18200 16287,18356 16276,18667 16254,19289 16228,19911 C 16227,19940 16225,19974 16223,20009 L 16176,20009 C 16176,19973 16175,19940 16175,19910 L 16188,19288 16191,18044 C 16191,17942 16181,17842 16168,17741 16151,17641 16132,17543 16102,17447 16074,17349 16036,17256 15994,17165 15951,17074 15898,16988 15842,16905 15728,16740 15589,16592 15433,16464 15354,16401 15272,16342 15187,16290 15143,16263 15100,16238 15055,16215 15019,16196 14979,16177 14943,16161 14900,16175 14856,16188 14814,16202 14764,16221 14714,16237 14666,16259 L 14593,16289 14521,16323 C 14474,16345 14429,16373 14382,16397 14292,16451 14206,16510 14125,16577 14045,16644 13972,16718 13905,16798 13839,16878 13781,16965 13731,17056 13683,17148 13643,17246 13614,17345 13584,17445 13564,17548 13558,17651 L 13549,17974 13528,18624 13505,19273 13493,19923 C 13492,19951 13491,19980 13489,20009 L 13440,20009 C 13440,19979 13439,19950 13439,19922 Z M 10726,16973 C 10728,16952 10731,16931 10737,16910 10742,16890 10747,16870 10755,16850 10762,16830 10771,16812 10780,16793 10789,16773 10800,16756 10811,16738 10821,16720 10835,16703 10847,16687 10859,16670 10873,16655 10888,16640 10902,16625 10916,16610 10933,16597 L 10981,16558 11032,16523 C 11040,16518 11049,16512 11058,16506 L 11085,16493 11139,16464 C 11157,16455 11176,16449 11195,16441 11214,16433 11232,16425 11251,16418 L 11366,16383 11379,16379 11391,16383 C 11434,16397 11470,16413 11508,16431 11526,16441 11544,16451 11562,16460 11580,16470 11598,16481 11615,16493 11632,16503 11649,16515 11666,16527 11682,16540 11700,16552 11715,16565 11730,16579 11747,16592 11762,16607 L 11805,16652 C 11819,16667 11831,16684 11845,16700 L 11864,16725 11880,16751 C 11891,16770 11903,16787 11913,16805 L 11939,16862 C 11949,16882 11954,16902 11960,16922 11966,16942 11974,16962 11977,16982 11983,17023 11992,17064 11991,17106 L 11992,17168 11992,17227 11989,17345 11981,17582 C 11974,17740 11968,17897 11958,18056 11948,17898 11941,17740 11935,17582 L 11927,17345 11924,17227 11923,17167 11918,17110 C 11918,17073 11907,17037 11900,17000 11899,16991 11897,16982 11893,16974 L 11884,16947 C 11877,16930 11873,16911 11864,16895 L 11839,16845 C 11831,16829 11819,16814 11809,16799 L 11794,16775 11776,16754 C 11764,16740 11753,16725 11740,16711 L 11700,16672 C 11686,16659 11672,16648 11657,16636 11644,16623 11628,16613 11613,16602 11598,16590 11582,16580 11566,16570 11550,16560 11534,16550 11517,16541 11501,16532 11484,16523 11467,16515 11438,16501 11406,16487 11377,16477 L 11282,16506 11230,16527 C 11212,16534 11195,16540 11178,16548 L 11129,16573 11104,16586 C 11096,16590 11088,16596 11081,16600 L 11034,16631 10992,16665 C 10977,16676 10965,16689 10952,16702 10939,16714 10926,16727 10915,16742 10904,16756 10892,16769 10883,16785 10874,16800 10863,16814 10856,16831 10847,16847 10839,16862 10833,16880 10825,16896 10821,16913 10816,16930 10811,16947 10807,16965 10805,16982 10802,16999 10800,17018 10800,17032 L 10800,17035 10795,17299 10787,17562 10776,17825 C 10772,17913 10768,18001 10762,18089 10757,18001 10753,17913 10749,17825 L 10737,17562 10730,17299 10724,17035 10724,17039 C 10722,17014 10723,16994 10726,16973 Z M 10748,19941 L 10737,19669 10729,19398 10723,19127 10723,19131 C 10722,19105 10722,19085 10725,19064 10727,19042 10731,19021 10735,19001 10741,18980 10746,18959 10754,18939 10760,18919 10768,18899 10778,18880 10786,18861 10797,18843 10808,18824 10818,18805 10831,18789 10844,18773 L 10863,18747 10885,18724 C 10899,18709 10912,18692 10929,18679 L 10977,18639 C 10994,18626 11011,18614 11029,18603 L 11054,18585 11082,18570 11136,18541 C 11154,18531 11173,18524 11192,18516 L 11249,18492 11366,18455 11379,18451 11393,18456 C 11436,18471 11473,18488 11511,18508 11529,18517 11548,18527 11566,18538 11584,18548 11602,18560 11619,18572 11638,18583 11655,18595 11671,18608 11688,18621 11705,18634 11720,18648 11736,18663 11753,18675 11768,18691 L 11811,18738 C 11837,18772 11865,18805 11886,18843 11910,18878 11926,18918 11944,18957 11952,18977 11957,18997 11964,19018 11969,19038 11977,19058 11979,19080 L 11989,19143 11991,19159 11992,19175 11993,19206 11994,19269 11992,19329 11989,19451 11981,19693 C 11977,19798 11973,19904 11968,20009 L 11950,20009 C 11945,19903 11940,19798 11935,19693 L 11927,19451 11924,19329 11923,19269 11919,19210 11917,19181 11916,19167 11913,19153 11901,19097 C 11899,19078 11891,19060 11885,19042 11879,19024 11874,19006 11866,18989 11849,18955 11835,18920 11812,18889 11793,18855 11767,18827 11743,18798 11717,18771 11690,18743 11661,18718 11647,18706 11631,18694 11615,18683 11600,18671 11584,18660 11569,18649 11552,18639 11536,18629 11519,18619 11502,18610 11485,18600 11468,18592 11439,18577 11407,18563 11377,18552 L 11281,18582 11229,18603 C 11211,18611 11193,18617 11177,18625 L 11127,18652 11102,18665 11079,18681 C 11064,18691 11048,18701 11033,18711 L 10990,18748 C 10975,18759 10964,18773 10951,18786 L 10931,18805 10915,18827 C 10903,18841 10891,18855 10883,18871 10873,18886 10862,18901 10855,18918 10846,18935 10839,18951 10833,18968 10825,18985 10821,19003 10816,19020 10812,19038 10808,19056 10805,19074 10802,19091 10801,19110 10801,19124 L 10801,19127 10795,19399 10787,19669 10776,19941 C 10776,19964 10774,19986 10773,20009 L 10751,20009 C 10751,19986 10749,19963 10748,19941 Z M 9353,16976 C 9357,16903 9371,16831 9394,16761 9406,16725 9421,16692 9439,16659 9457,16626 9478,16594 9503,16565 9514,16550 9528,16537 9541,16523 L 9561,16504 C 9569,16498 9576,16492 9584,16486 9613,16462 9647,16443 9680,16425 L 9702,16413 9723,16426 C 9744,16439 9756,16449 9771,16462 9785,16474 9799,16486 9811,16499 9836,16525 9859,16554 9879,16583 9900,16613 9918,16644 9934,16675 9942,16691 9949,16707 9955,16724 9963,16740 9969,16757 9974,16774 9980,16790 9986,16807 9990,16824 L 10003,16876 C 10011,16910 10015,16945 10020,16979 10023,17014 10028,17048 10028,17083 10027,17117 10028,17153 10027,17186 10024,17319 10019,17454 10013,17589 10007,17723 10001,17857 9990,17991 9980,17857 9974,17723 9967,17589 9962,17454 9957,17320 9954,17186 9953,17150 9951,17119 9950,17087 9948,17054 9942,17021 9939,16989 9932,16958 9928,16926 9919,16895 L 9907,16849 C 9902,16834 9896,16818 9891,16803 9886,16788 9879,16774 9873,16760 9866,16746 9860,16730 9853,16717 9838,16688 9822,16662 9804,16636 9786,16611 9766,16586 9744,16564 9733,16553 9722,16543 9710,16533 9706,16530 9702,16527 9698,16523 9678,16535 9658,16546 9641,16560 9635,16565 9629,16569 9622,16575 L 9606,16590 C 9594,16602 9583,16612 9573,16625 9552,16649 9534,16676 9518,16703 9503,16731 9490,16761 9478,16791 9455,16852 9442,16917 9436,16983 9434,16998 9433,17016 9433,17031 L 9432,17084 9429,17188 9423,17397 9415,17606 9405,17814 C 9401,17884 9397,17953 9392,18022 9387,17953 9382,17884 9379,17814 L 9369,17606 9361,17397 9355,17188 9352,17084 9351,17033 C 9351,17012 9352,16995 9353,16976 Z M 9380,19980 L 9369,19754 9361,19527 9355,19300 9353,19187 C 9353,19150 9350,19112 9352,19072 9354,19032 9357,18993 9364,18954 9367,18935 9370,18915 9375,18896 9379,18876 9384,18857 9390,18838 9395,18819 9401,18800 9409,18781 9415,18763 9424,18744 9433,18726 9441,18708 9451,18690 9461,18673 L 9477,18646 9495,18621 C 9507,18605 9519,18589 9534,18574 9548,18559 9561,18543 9578,18531 9593,18518 9608,18503 9626,18492 L 9679,18459 9702,18445 9726,18461 C 9746,18475 9760,18487 9775,18501 9790,18516 9804,18529 9816,18545 9842,18574 9864,18606 9885,18639 9896,18656 9905,18672 9914,18689 9923,18706 9930,18724 9939,18741 9953,18777 9969,18812 9978,18849 9990,18885 9997,18922 10006,18959 10013,18997 10018,19034 10022,19072 L 10026,19128 C 10028,19146 10029,19165 10028,19184 10028,19221 10029,19259 10028,19295 10024,19441 10019,19587 10014,19733 10010,19825 10005,19917 10000,20009 L 9982,20009 C 9976,19917 9972,19825 9968,19733 9963,19587 9957,19441 9954,19295 9953,19258 9951,19223 9950,19187 9950,19152 9943,19117 9940,19081 9935,19046 9929,19011 9922,18977 9913,18943 9905,18909 9894,18876 9888,18859 9883,18843 9876,18827 9869,18811 9864,18794 9856,18778 9848,18763 9840,18748 9833,18732 L 9807,18688 C 9788,18660 9768,18631 9746,18606 9735,18593 9723,18581 9711,18570 9707,18566 9702,18562 9698,18558 L 9679,18570 C 9665,18578 9652,18591 9639,18601 9625,18611 9614,18625 9603,18637 9590,18649 9580,18663 9569,18677 L 9554,18697 9540,18720 C 9531,18734 9522,18750 9515,18766 9507,18781 9500,18798 9493,18814 9488,18830 9482,18847 9476,18865 9470,18881 9465,18899 9461,18916 9456,18933 9453,18951 9449,18968 9443,19004 9438,19040 9436,19075 9432,19111 9434,19149 9432,19187 L 9430,19300 9424,19527 9416,19754 9406,19980 C 9405,19990 9405,19999 9404,20009 L 9381,20009 C 9380,19999 9380,19989 9380,19980 Z"/>
       </g>
      </g>
     </g>
    </g>
   </g>
  </g>
 </g>
</svg>