<?xml version="1.0" encoding="UTF-8"?>
<!DOCTYPE svg PUBLIC "-//W3C//DTD SVG 1.1//EN" "http://www.w3.org/Graphics/SVG/1.1/DTD/svg11.dtd">
<svg version="1.2" width="262.5mm" height="261.3mm" viewBox="0 0 26250 26130" preserveAspectRatio="xMidYMid" fill-rule="evenodd" stroke-width="28.222" stroke-linejoin="round" xmlns="http://www.w3.org/2000/svg" xmlns:ooo="http://xml.openoffice.org/svg/export" xmlns:xlink="http://www.w3.org/1999/xlink" xmlns:presentation="http://sun.com/xmlns/staroffice/presentation" xmlns:smil="http://www.w3.org/2001/SMIL20/" xmlns:anim="urn:oasis:names:tc:opendocument:xmlns:animation:1.0" xml:space="preserve">
 <defs class="ClipPathGroup">
  <clipPath id="presentation_clip_path" clipPathUnits="userSpaceOnUse">
   <rect x="0" y="0" width="26250" height="26130"/>
  </clipPath>
  <clipPath id="presentation_clip_path_shrink" clipPathUnits="userSpaceOnUse">
   <rect x="26" y="26" width="26198" height="26078"/>
  </clipPath>
 </defs>
 <defs class="TextShapeIndex">
  <g ooo:slide="id1" ooo:id-list="id3 id4 id5"/>
 </defs>
 <defs class="EmbeddedBulletChars">
  <g id="bullet-char-template(57356)" transform="scale(0.00048828125,-0.00048828125)">
   <path d="M 580,1141 L 1163,571 580,0 -4,571 580,1141 Z"/>
  </g>
  <g id="bullet-char-template(57354)" transform="scale(0.00048828125,-0.00048828125)">
   <path d="M 8,1128 L 1137,1128 1137,0 8,0 8,1128 Z"/>
  </g>
  <g id="bullet-char-template(10146)" transform="scale(0.00048828125,-0.00048828125)">
   <path d="M 174,0 L 602,739 174,1481 1456,739 174,0 Z M 1358,739 L 309,1346 659,739 1358,739 Z"/>
  </g>
  <g id="bullet-char-template(10132)" transform="scale(0.00048828125,-0.00048828125)">
   <path d="M 2015,739 L 1276,0 717,0 1260,543 174,543 174,936 1260,936 717,1481 1274,1481 2015,739 Z"/>
  </g>
  <g id="bullet-char-template(10007)" transform="scale(0.00048828125,-0.00048828125)">
   <path d="M 0,-2 C -7,14 -16,27 -25,37 L 356,567 C 262,823 215,952 215,954 215,979 228,992 255,992 264,992 276,990 289,987 310,991 331,999 354,1012 L 381,999 492,748 772,1049 836,1024 860,1049 C 881,1039 901,1025 922,1006 886,937 835,863 770,784 769,783 710,716 594,584 L 774,223 C 774,196 753,168 711,139 L 727,119 C 717,90 699,76 672,76 641,76 570,178 457,381 L 164,-76 C 142,-110 111,-127 72,-127 30,-127 9,-110 8,-76 1,-67 -2,-52 -2,-32 -2,-23 -1,-13 0,-2 Z"/>
  </g>
  <g id="bullet-char-template(10004)" transform="scale(0.00048828125,-0.00048828125)">
   <path d="M 285,-33 C 182,-33 111,30 74,156 52,228 41,333 41,471 41,549 55,616 82,672 116,743 169,778 240,778 293,778 328,747 346,684 L 369,508 C 377,444 397,411 428,410 L 1163,1116 C 1174,1127 1196,1133 1229,1133 1271,1133 1292,1118 1292,1087 L 1292,965 C 1292,929 1282,901 1262,881 L 442,47 C 390,-6 338,-33 285,-33 Z"/>
  </g>
  <g id="bullet-char-template(9679)" transform="scale(0.00048828125,-0.00048828125)">
   <path d="M 813,0 C 632,0 489,54 383,161 276,268 223,411 223,592 223,773 276,916 383,1023 489,1130 632,1184 813,1184 992,1184 1136,1130 1245,1023 1353,916 1407,772 1407,592 1407,412 1353,268 1245,161 1136,54 992,0 813,0 Z"/>
  </g>
  <g id="bullet-char-template(8226)" transform="scale(0.00048828125,-0.00048828125)">
   <path d="M 346,457 C 273,457 209,483 155,535 101,586 74,649 74,723 74,796 101,859 155,911 209,963 273,989 346,989 419,989 480,963 531,910 582,859 608,796 608,723 608,648 583,586 532,535 482,483 420,457 346,457 Z"/>
  </g>
  <g id="bullet-char-template(8211)" transform="scale(0.00048828125,-0.00048828125)">
   <path d="M -4,459 L 1135,459 1135,606 -4,606 -4,459 Z"/>
  </g>
  <g id="bullet-char-template(61548)" transform="scale(0.00048828125,-0.00048828125)">
   <path d="M 173,740 C 173,903 231,1043 346,1159 462,1274 601,1332 765,1332 928,1332 1067,1274 1183,1159 1299,1043 1357,903 1357,740 1357,577 1299,437 1183,322 1067,206 928,148 765,148 601,148 462,206 346,322 231,437 173,577 173,740 Z"/>
  </g>
 </defs>
 <defs class="TextEmbeddedBitmaps"/>
 <g>
  <g id="id2" class="Master_Slide">
   <g id="bg-id2" class="Background"/>
   <g id="bo-id2" class="BackgroundObjects"/>
  </g>
 </g>
 <g class="SlideGroup">
  <g>
   <g id="container-id1">
    <g id="id1" class="Slide" clip-path="url(#presentation_clip_path)">
     <g class="Page">
      <g class="com.sun.star.drawing.ClosedBezierShape">
       <g id="id3">
        <rect class="BoundingBox" stroke="none" fill="none" x="2363" y="636" width="22067" height="24638"/>
        <path fill="rgb(0,0,0)" stroke="none" d="M 23522,7040 C 23526,6999 23515,6947 23535,6928 23679,6795 23503,6768 23461,6699 23394,6589 23333,6681 23278,6717 23221,6753 23165,6797 23122,6849 22985,7018 22805,7053 22639,6945 22408,6796 22285,6918 22164,7081 22017,7279 21860,7460 21602,7514 21574,7520 21533,7540 21527,7561 21460,7814 21193,7892 21066,8102 20937,8319 20674,8354 20437,8393 20403,8399 20353,8324 20334,8406 20322,8462 20304,8532 20367,8573 20397,8593 20439,8594 20475,8607 20634,8668 20779,8956 20738,9122 20731,9155 20717,9191 20687,9179 20558,9124 20453,9218 20336,9232 20040,9267 19742,9281 19447,9303 19175,9324 18911,9360 18639,9321 18438,9292 18325,9178 18320,8977 18316,8835 18265,8697 18309,8549 18340,8441 18266,8321 18166,8334 18041,8350 17841,8371 17826,8520 17793,8862 17767,9210 17816,9554 17847,9781 17726,9827 17542,9823 17358,9819 17155,9738 17004,9756 16481,9820 16046,9571 15577,9451 15465,9422 15346,9353 15298,9234 15261,9143 15188,9126 15118,9081 14888,8936 14664,9039 14439,9072 14254,9099 14061,9124 13923,8986 13846,8909 13769,8890 13681,8852 13427,8739 13126,8724 12912,8535 12721,8366 12506,8252 12278,8151 12168,8102 12058,8053 11952,7995 11852,7940 11810,7875 11847,7737 11960,7316 12113,6927 12496,6698 12477,6621 12423,6611 12384,6600 11988,6491 11767,6101 11378,5979 11305,5956 11237,5882 11195,5813 11134,5714 11096,5648 10975,5751 10906,5811 10869,5739 10859,5673 10813,5359 10746,5052 10606,4764 10564,4677 10640,4624 10707,4584 10761,4553 10807,4556 10829,4628 10898,4846 11014,4839 11160,4698 11210,4650 11267,4618 11338,4603 11393,4592 11435,4540 11409,4481 11348,4344 11301,4203 11256,4060 11221,3949 11047,3959 10973,3849 10881,3714 11092,3625 11010,3501 11006,3495 11006,3486 11004,3479 10965,3346 11039,3271 11151,3295 11358,3337 11406,3234 11425,3068 11430,3027 11457,2974 11490,2953 11710,2812 11849,2619 11904,2362 11935,2218 12036,2080 11895,1938 11715,1755 11425,1639 11251,1679 10961,1747 10635,1755 10366,1963 10233,2067 9977,2219 9838,1894 9824,1861 9747,1841 9697,1837 9528,1824 9422,1741 9346,1590 9288,1476 9201,1370 9085,1310 8904,1218 8770,1072 8625,939 8471,796 8368,551 8081,677 8056,688 8013,654 7977,646 7734,589 7552,803 7320,794 7324,996 7181,908 7103,889 6981,860 6873,865 6782,947 6653,1065 6528,1188 6412,1319 6289,1457 6336,1660 6500,1671 6664,1682 6762,1765 6864,1870 6980,1989 7227,1969 7230,2212 7230,2221 7271,2227 7290,2238 7472,2344 7481,2438 7314,2578 7222,2656 7124,2728 7024,2796 6959,2840 6930,2896 6942,2969 6998,3300 6994,3636 7016,3970 7025,4093 7081,4163 7203,4192 7392,4237 7529,4417 7744,4407 7779,4406 7809,4449 7808,4491 7804,4648 7922,4679 8035,4729 8124,4770 8261,4790 8256,4923 8250,5061 8118,5058 8019,5089 7733,5179 7700,5262 7691,5558 7686,5734 7746,5939 7531,6084 7394,6176 7272,6337 7218,6493 7156,6670 7064,6780 6900,6842 6791,6884 6725,6961 6693,7069 6641,7247 6532,7390 6421,7534 6203,7817 5856,7973 5684,8300 5473,8703 5048,8615 4706,8715 4640,8735 4602,8661 4570,8612 4444,8415 4314,8397 4164,8591 4041,8749 3905,8889 3764,9028 3656,9133 3565,9249 3614,9409 3664,9572 3815,9622 3957,9631 4110,9640 4111,9712 4090,9821 4078,9888 4067,9956 4055,10023 4016,10242 4077,10401 4316,10447 4380,10460 4446,10483 4454,10548 4492,10872 4701,11154 4692,11488 4690,11550 4807,11623 4676,11677 4564,11723 4433,11814 4336,11723 4219,11614 4114,11640 4006,11687 3829,11763 3656,11725 3475,11719 3226,11709 2932,11535 2735,11853 2704,11903 2637,11896 2587,11887 2349,11844 2342,11973 2380,12147 2494,12144 2558,12014 2689,12033 2634,12128 2511,12154 2544,12287 2623,12606 3280,13009 3599,12925 3774,12879 3950,12835 4125,12790 4135,12807 4145,12823 4154,12839 4069,12914 3985,12991 3898,13063 3650,13269 3360,13325 3048,13298 2994,13294 2957,13180 2898,13242 2834,13312 2909,13388 2951,13442 3253,13842 3565,14235 3915,14596 3991,14675 4105,14717 4199,14781 4249,14814 4297,14810 4351,14800 4636,14747 4908,14662 5168,14531 5385,14421 5498,14255 5523,14016 5541,13839 5548,13658 5628,13491 5878,13612 5607,14013 5994,14063 5788,14248 5754,14423 5875,14646 5938,14761 6024,14912 5950,15052 5756,15417 5798,15798 5846,16182 5849,16209 5817,16247 5884,16261 5977,16280 6012,16347 5960,16396 5826,16524 5912,16652 5944,16774 6045,17168 6187,17555 6197,17964 6211,18549 6486,19045 6749,19529 6963,19921 7166,20309 7251,20744 7335,21173 7424,21603 7686,21954 8168,22604 8439,23338 8615,24112 8732,24625 9038,24981 9479,25229 9735,25374 10216,25138 10243,24851 10265,24621 10382,24520 10582,24466 10727,24426 10871,24380 11022,24335 11005,24310 10974,24284 10966,24252 10914,24053 11320,23491 11525,23492 11723,23493 11786,23432 11750,23225 11714,23024 11763,22808 11720,22611 11630,22198 11864,21884 12015,21551 12097,21372 12124,21193 12155,21010 12176,20885 12042,20863 11988,20788 11912,20682 12174,20727 12088,20571 11920,20269 12013,19921 11965,19597 11935,19397 12033,19225 12154,19079 12269,18939 12415,18840 12602,18976 12683,19035 12708,18963 12738,18918 12802,18824 12854,18722 12919,18629 12975,18547 13053,18449 13154,18476 13384,18538 13545,18390 13734,18324 13793,18303 13843,18271 13830,18193 13772,17829 14050,17706 14294,17576 14414,17512 14515,17441 14580,17328 14689,17138 14847,16998 15014,16865 15411,16546 15680,16126 15949,15703 16005,15616 16049,15350 16262,15576 16277,15591 16335,15575 16369,15563 16609,15482 16848,15383 17015,15192 17178,15006 17355,14788 17255,14521 17171,14296 17262,14199 17434,14108 17697,13968 18039,13940 18151,13576 18170,13821 18273,13828 18422,13713 18474,13674 18528,13651 18590,13661 18777,13688 18770,13567 18747,13448 18711,13263 18631,13081 18626,12896 18618,12601 18468,12380 18328,12145 18286,12075 18281,11995 18329,11910 18458,11684 18440,11642 18196,11535 18097,11491 18014,11427 17944,11343 17893,11283 17881,11211 17935,11157 18068,11027 18167,10855 18358,10792 18406,10776 18478,10801 18497,10737 18521,10656 18425,10654 18390,10611 18357,10573 18309,10545 18263,10522 17839,10305 17814,10223 18057,9831 18065,9819 18080,9809 18085,9795 18120,9703 18150,9686 18215,9755 18282,9825 18377,9882 18425,9810 18514,9680 18554,9771 18601,9824 18667,9898 18726,9976 18820,10018 18873,10042 18921,10063 18948,9988 18965,9941 18964,9868 19035,9881 19095,9891 19098,9964 19109,10011 19140,10135 19185,10263 19178,10386 19167,10577 19234,10667 19422,10674 19536,10678 19650,10692 19764,10692 20121,10694 20479,10691 20837,10690 20984,10689 21085,10681 21039,10910 20978,11206 20836,11405 20580,11534 20312,11668 20249,11860 20325,12139 20371,12307 20543,12336 20596,12474 20614,12521 20635,12561 20689,12551 20749,12540 20780,12493 20777,12435 20771,12311 20800,12196 20842,12082 20875,11991 20888,11861 21002,11856 21130,11850 21120,11992 21148,12077 21275,12463 21382,12855 21446,13256 21469,13400 21575,13463 21674,13467 21771,13472 21776,13338 21797,13251 21804,13222 21808,13191 21811,13161 21832,12879 21730,12608 21907,12308 22023,12110 21948,11778 21838,11508 22012,11521 22168,11535 22325,11543 22399,11547 22464,11522 22478,11438 22534,11097 22824,10807 22701,10424 22685,10372 22693,10302 22740,10253 22985,10001 22974,9693 22937,9377 22929,9305 22909,9227 22988,9169 23228,8993 23403,8744 23652,8577 23841,8450 24026,8293 24249,8526 24264,8542 24303,8535 24381,8547 24135,8305 24136,8106 24363,7890 24503,7758 24404,7557 24203,7538 24026,7522 23851,7469 23665,7551 23673,7413 23753,7344 23788,7256 23852,7094 23719,6982 23522,7040 Z"/>
       </g>
      </g>
      <g class="com.sun.star.drawing.ClosedBezierShape">
       <g id="id4">
        <rect class="BoundingBox" stroke="none" fill="none" x="2364" y="636" width="22067" height="24638"/>
        <path fill="rgb(90,184,216)" stroke="none" d="M 23522,7040 C 23719,6982 23852,7094 23789,7256 23755,7344 23674,7413 23666,7551 23852,7469 24028,7522 24204,7538 24405,7557 24504,7757 24364,7890 24137,8106 24136,8305 24382,8547 24304,8536 24265,8542 24250,8526 24028,8293 23842,8449 23653,8577 23404,8744 23230,8993 22990,9169 22911,9227 22930,9304 22938,9377 22975,9692 22986,10001 22741,10253 22694,10302 22686,10373 22702,10424 22825,10807 22535,11097 22479,11438 22465,11522 22400,11547 22326,11543 22169,11534 22014,11521 21839,11508 21949,11778 22024,12110 21908,12308 21731,12608 21833,12879 21812,13161 21809,13191 21806,13222 21798,13251 21777,13338 21772,13472 21675,13467 21576,13463 21470,13400 21447,13256 21383,12855 21276,12462 21149,12077 21121,11991 21132,11850 21003,11856 20889,11861 20876,11991 20843,12082 20800,12195 20772,12311 20778,12435 20781,12493 20750,12540 20690,12551 20635,12561 20615,12520 20597,12474 20544,12336 20372,12307 20326,12139 20250,11859 20313,11669 20581,11534 20837,11406 20980,11206 21040,10910 21086,10681 20985,10689 20838,10690 20480,10691 20122,10694 19765,10692 19651,10692 19537,10678 19424,10674 19235,10667 19168,10577 19179,10386 19186,10263 19141,10135 19110,10011 19099,9964 19096,9891 19036,9881 18965,9868 18966,9940 18949,9988 18922,10063 18874,10042 18821,10018 18727,9976 18668,9897 18602,9823 18555,9771 18515,9680 18426,9810 18378,9882 18283,9825 18217,9755 18151,9686 18122,9703 18086,9795 18081,9809 18066,9818 18059,9831 17815,10223 17840,10305 18264,10521 18310,10545 18358,10573 18391,10611 18427,10654 18522,10656 18498,10737 18479,10801 18407,10776 18359,10792 18168,10855 18069,11027 17936,11157 17882,11211 17895,11282 17945,11343 18015,11427 18098,11491 18197,11534 18441,11642 18459,11684 18330,11910 18282,11994 18288,12075 18329,12145 18469,12380 18619,12601 18627,12896 18632,13081 18712,13263 18748,13448 18771,13567 18778,13688 18591,13661 18529,13651 18475,13674 18423,13713 18274,13827 18171,13821 18152,13575 18040,13940 17698,13968 17435,14108 17263,14199 17172,14296 17256,14521 17356,14787 17179,15006 17016,15192 16849,15383 16611,15482 16370,15563 16336,15575 16278,15592 16263,15576 16050,15350 16006,15616 15950,15703 15681,16126 15413,16546 15015,16864 14848,16998 14690,17138 14581,17328 14516,17441 14414,17512 14295,17576 14051,17706 13773,17828 13831,18193 13844,18271 13795,18303 13735,18324 13546,18390 13385,18538 13155,18476 13054,18449 12976,18547 12920,18629 12855,18722 12803,18824 12739,18918 12709,18962 12684,19035 12603,18976 12416,18840 12270,18939 12155,19079 12034,19225 11936,19397 11966,19596 12014,19921 11922,20269 12089,20571 12175,20726 11913,20682 11990,20788 12043,20863 12177,20885 12156,21010 12125,21193 12098,21372 12017,21551 11865,21883 11631,22198 11721,22611 11764,22808 11715,23024 11751,23225 11787,23432 11724,23493 11526,23492 11321,23491 10915,24053 10967,24252 10975,24284 11006,24310 11023,24335 10872,24380 10728,24426 10583,24465 10383,24520 10266,24621 10244,24851 10218,25138 9736,25374 9480,25229 9039,24981 8733,24625 8616,24112 8440,23337 8169,22603 7687,21954 7426,21603 7336,21173 7252,20744 7167,20309 6964,19921 6751,19529 6487,19045 6212,18549 6198,17964 6188,17555 6046,17167 5945,16774 5913,16652 5828,16524 5961,16396 6013,16347 5978,16280 5885,16261 5818,16246 5850,16209 5847,16182 5799,15798 5757,15417 5951,15052 6025,14912 5939,14761 5876,14646 5756,14423 5790,14248 5995,14063 5608,14013 5879,13612 5629,13491 5549,13658 5542,13839 5524,14016 5499,14255 5386,14421 5169,14530 4909,14661 4637,14747 4353,14800 4298,14810 4250,14814 4201,14781 4106,14717 3992,14675 3916,14596 3567,14235 3254,13842 2952,13442 2910,13387 2835,13311 2900,13242 2958,13180 2995,13294 3049,13298 3361,13325 3651,13269 3899,13063 3986,12991 4070,12914 4155,12839 4146,12823 4136,12807 4126,12790 3951,12835 3776,12879 3600,12925 3281,13009 2624,12606 2545,12287 2512,12153 2635,12128 2690,12033 2559,12014 2496,12144 2382,12147 2343,11973 2350,11844 2588,11887 2638,11896 2705,11903 2736,11853 2933,11535 3227,11710 3476,11718 3657,11725 3830,11763 4007,11687 4115,11640 4220,11614 4337,11723 4434,11814 4565,11722 4677,11676 4808,11623 4691,11549 4693,11488 4702,11154 4494,10872 4455,10548 4447,10483 4381,10460 4317,10447 4079,10400 4017,10242 4056,10023 4068,9956 4079,9888 4092,9821 4112,9712 4111,9640 3958,9631 3816,9623 3665,9572 3615,9409 3566,9249 3657,9133 3765,9027 3906,8889 4043,8748 4165,8591 4315,8397 4445,8415 4571,8612 4603,8661 4641,8735 4707,8715 5050,8616 5474,8703 5686,8300 5857,7972 6205,7817 6422,7534 6533,7390 6642,7247 6694,7069 6726,6961 6792,6884 6901,6842 7066,6780 7157,6670 7219,6493 7273,6337 7396,6176 7533,6084 7747,5939 7687,5734 7692,5558 7701,5263 7734,5179 8020,5089 8119,5058 8251,5061 8257,4923 8262,4790 8125,4769 8036,4729 7923,4678 7805,4648 7809,4491 7810,4449 7780,4405 7745,4407 7530,4416 7393,4237 7204,4192 7082,4163 7026,4093 7018,3969 6995,3636 6999,3300 6943,2969 6931,2896 6960,2840 7025,2795 7125,2728 7223,2656 7315,2578 7482,2437 7474,2343 7291,2238 7272,2227 7232,2221 7232,2212 7228,1969 6981,1989 6866,1870 6763,1764 6665,1682 6501,1671 6337,1660 6290,1456 6413,1319 6530,1189 6654,1065 6783,947 6873,865 6982,860 7104,889 7182,908 7325,996 7321,794 7553,803 7735,589 7978,646 8014,654 8057,688 8082,677 8369,550 8472,796 8626,938 8771,1072 8905,1218 9086,1310 9202,1370 9289,1476 9347,1590 9423,1741 9530,1824 9698,1837 9748,1841 9825,1861 9840,1894 9978,2218 10234,2067 10367,1963 10636,1755 10962,1746 11252,1679 11426,1639 11716,1755 11896,1938 12038,2080 11936,2218 11906,2362 11850,2619 11711,2812 11491,2953 11458,2975 11431,3027 11426,3068 11407,3234 11359,3337 11152,3295 11041,3271 10966,3346 11005,3479 11007,3486 11007,3495 11011,3501 11093,3625 10883,3714 10974,3849 11048,3959 11222,3949 11257,4059 11302,4203 11349,4344 11410,4481 11436,4541 11394,4592 11339,4603 11268,4618 11211,4650 11162,4698 11015,4839 10899,4846 10831,4628 10808,4556 10762,4553 10708,4584 10641,4624 10565,4677 10607,4764 10748,5052 10814,5359 10860,5673 10870,5739 10907,5810 10977,5751 11097,5648 11136,5714 11196,5813 11238,5882 11306,5956 11379,5979 11768,6101 11989,6491 12385,6600 12424,6611 12478,6621 12497,6698 12114,6927 11961,7316 11848,7737 11811,7875 11853,7940 11953,7995 12059,8053 12169,8102 12279,8151 12507,8252 12722,8366 12913,8535 13128,8724 13428,8739 13682,8852 13770,8890 13848,8909 13925,8986 14062,9124 14255,9099 14440,9072 14665,9040 14889,8936 15119,9081 15189,9126 15262,9143 15299,9234 15348,9353 15467,9422 15578,9451 16047,9571 16482,9820 17005,9756 17156,9738 17359,9818 17544,9823 17728,9827 17849,9781 17817,9554 17768,9210 17794,8862 17827,8520 17842,8371 18042,8350 18167,8334 18268,8321 18342,8441 18310,8549 18266,8697 18317,8835 18321,8977 18327,9178 18439,9292 18640,9321 18912,9360 19177,9324 19448,9303 19743,9281 20041,9266 20337,9231 20454,9218 20559,9124 20688,9179 20718,9192 20732,9155 20740,9122 20780,8955 20635,8668 20476,8607 20441,8593 20398,8593 20368,8573 20305,8532 20322,8462 20335,8406 20354,8324 20404,8399 20438,8393 20676,8354 20938,8319 21067,8102 21194,7892 21461,7814 21528,7561 21533,7540 21575,7520 21603,7514 21862,7461 22017,7279 22165,7080 22286,6918 22409,6796 22640,6945 22807,7053 22986,7018 23123,6849 23166,6797 23222,6753 23279,6717 23334,6681 23395,6589 23462,6699 23504,6768 23680,6795 23536,6928 23515,6947 23526,6999 23522,7040 Z"/>
       </g>
      </g>
      <g class="com.sun.star.drawing.ClosedBezierShape">
       <g id="id5">
        <rect class="BoundingBox" stroke="none" fill="none" x="5199" y="5700" width="7963" height="15702"/>
        <path fill="rgb(0,0,0)" stroke="none" d="M 9251,9807 C 9251,9807 9775,9487 9790,9843 9795,9941 9735,10100 9729,10108 9722,10117 9624,10117 9707,10179 9790,10239 9696,10265 9696,10265 9696,10265 8992,10355 8902,10372 8811,10390 8773,10431 8773,10431 8773,10431 8764,10456 8732,10442 8700,10427 8676,10438 8676,10438 8676,10438 8566,10558 8559,10581 8553,10605 8553,10603 8558,10649 8564,10694 8556,10704 8508,10759 8460,10815 8349,10948 8328,11035 8308,11123 8245,11248 8245,11248 8238,11301 8221,11434 8187,11539 8154,11646 8084,12130 8084,12130 8065,12245 8118,12259 8118,12259 8081,12449 8214,12368 8214,12368 8241,12334 8242,12253 8242,12253 8290,12277 8294,12255 8294,12255 8375,12233 8477,12026 8477,12026 8520,12062 8542,12041 8542,12041 8739,12016 8833,11612 8896,11532 8958,11453 9045,11196 9057,11147 9069,11099 9090,11097 9134,11102 9177,11106 9219,11027 9219,11027 9219,11027 9240,11013 9281,10962 9322,10911 9286,10848 9284,10820 9281,10791 9915,10839 9946,10839 9977,10839 9965,10863 9965,10863 9905,10933 9992,10979 9992,10979 9984,11068 10004,11031 10023,11080 10042,11128 9975,11191 9917,11133 9859,11075 9825,11075 9657,11147 9488,11220 9112,11653 8655,12197 8197,12741 7984,13323 7984,13323 7984,13323 7859,13506 7840,13532 7820,13558 7798,13535 7798,13535 7743,13461 7679,13535 7665,13562 7650,13588 7628,13563 7628,13563 7559,13528 7539,13590 7539,13604 7541,13618 7526,13613 7526,13613 7468,13604 7442,13660 7443,13676 7444,13692 7429,13687 7429,13687 7347,13702 7368,13753 7374,13771 7381,13789 7354,13783 7354,13783 7272,13771 7265,13853 7282,13870 7298,13887 7332,13899 7291,13935 7251,13972 7294,14043 7282,14082 7269,14121 6658,14364 6658,14364 6542,14364 6393,14398 6320,14421 6248,14445 6111,14487 6024,14479 5937,14472 5764,14487 5764,14487 5557,14558 5246,14455 5246,14455 5073,14763 5442,14795 5442,14795 5287,15018 5578,15028 5578,15028 5449,15149 5723,15211 5723,15211 5607,15300 5875,15341 5875,15341 5851,15394 5961,15442 6188,15428 6414,15413 6535,15418 6703,15321 6872,15225 7166,15274 7291,15250 7416,15225 7677,14816 7677,14816 7720,14893 7783,14879 7783,14879 L 7845,15158 8178,15774 8267,16128 8553,16367 8582,16619 8917,16843 C 8917,16843 8915,17091 8936,17116 8958,17139 8951,17156 8951,17156 8898,17279 8876,17428 8876,17428 8876,17428 8621,17965 8599,18025 8578,18086 8542,18153 8599,18170 8657,18186 8679,18179 8720,18213 8760,18247 8734,18304 8773,18307 8811,18309 8826,18329 8826,18329 L 9059,18343 9141,18430 9351,18437 9413,18514 9625,18552 9674,18528 C 9674,18528 9777,18574 9787,18594 9796,18612 9765,18641 9806,18677 9847,18714 9799,18750 9828,18791 9857,18832 9837,18856 9837,18856 9890,18892 9895,18894 9895,18894 9900,18940 9912,18947 9953,18974 9994,19000 9970,19193 10028,19207 10086,19221 10090,19255 10134,19279 10177,19303 10139,19332 10197,19366 10254,19400 10254,19415 10254,19415 10471,19843 10804,20102 10804,20102 10811,20118 10842,20118 10782,20166 10723,20215 10764,20270 10778,20282 10793,20295 10770,20320 10770,20320 10719,20374 10766,20405 10782,20416 10799,20427 10784,20445 10784,20445 10741,20485 10775,20528 10802,20544 10829,20561 10806,20574 10806,20574 10770,20654 10820,20676 10820,20676 10828,20791 10380,20914 10322,20950 10264,20987 9852,20987 9786,21087 9720,21189 9801,21254 9801,21254 9714,21448 10018,21398 10068,21384 10119,21369 10061,21340 10206,21377 10351,21412 10639,21304 10770,21249 10900,21195 11109,21181 11384,21225 11659,21268 11817,21268 11984,21116 12150,20965 11839,20618 11839,20618 11839,20618 11788,20567 11817,20503 11846,20438 11760,20380 11710,20358 11661,20336 11644,20423 11710,20293 11776,20163 11717,20206 11666,20170 11615,20134 11586,20221 11644,20113 11702,20004 11579,19968 11579,19968 11398,19448 10986,18329 10820,17989 10654,17649 10639,17874 10719,17671 10799,17469 10705,17404 10639,17375 10574,17346 10574,17296 10625,17151 10676,17007 10712,16819 10697,16718 10683,16617 10697,16588 10777,16559 10857,16530 10734,16429 10770,16407 10806,16386 10835,16429 10864,16321 10893,16213 11138,15909 11138,15858 11138,15808 11160,15779 11276,15635 11391,15490 11254,15411 11189,15252 11124,15093 11247,15129 11334,15122 11420,15115 11427,15057 11427,15057 11423,14965 11430,14917 11447,14886 11447,14886 11807,14508 12482,14364 12991,14254 13235,13469 13140,12929 13140,12929 13130,12442 12793,12211 12793,12211 12417,11884 12417,11479 12417,11479 12199,10541 12645,10033 12783,9876 12921,9604 12957,9467 13005,9284 12976,8783 12735,8676 12495,8569 12283,8629 12215,8668 12147,8706 12036,8600 12036,8600 11991,8581 11916,8562 11916,8562 11887,8427 11791,8389 11791,8389 11791,8389 11777,8420 11739,8391 11739,8391 12348,8126 11908,7643 11879,7612 11936,7579 11936,7579 12234,6886 11772,6386 11743,6299 11714,6212 11772,5664 10982,5702 10191,5740 10278,6520 10278,6520 10294,6533 10273,6549 10273,6549 10023,6867 10202,7416 10202,7416 10037,7608 10249,7816 10249,7816 10090,8215 10474,8593 10474,8593 10594,8627 10336,8699 10336,8699 10223,8699 10153,8723 10153,8723 10081,8759 10050,8709 10050,8709 10016,8656 9975,8668 9975,8668 9914,8677 9854,8651 9854,8651 9739,8651 9722,8706 9722,8706 9683,8769 9642,8752 9642,8752 9573,8735 9515,8832 9515,8832 9498,8853 9428,8855 9428,8855 9348,8819 9266,8904 9266,8904 8994,8918 8433,9287 8433,9287 8281,9330 8076,9407 8038,9421 8000,9436 8002,9397 8002,9397 8065,9310 8021,9247 8021,9247 7997,9166 8009,9055 8009,9055 7987,8949 7896,8926 7896,8926 7860,8918 7855,8899 7855,8899 7864,8792 7807,8718 7807,8718 7807,8525 7714,8260 7714,8260 7709,8219 7686,8134 7686,8134 7652,7952 7568,7996 7568,7996 7508,7998 7510,8094 7510,8094 7477,7872 7377,7911 7377,7911 7297,7926 7321,8068 7321,8068 7293,8031 7256,8050 7256,8050 7188,8070 7224,8322 7226,8338 7228,8355 7224,8365 7224,8365 7205,8425 7215,8530 7227,8560 7239,8591 7236,8582 7236,8582 7214,8647 7258,8833 7251,8853 7243,8873 7232,8857 7229,8815 7225,8774 7207,8640 7195,8622 7182,8604 7177,8548 7177,8548 7169,8429 7138,8340 7138,8340 7080,8235 7030,8340 7030,8376 7030,8413 7030,8474 7037,8535 7044,8596 7062,8821 7062,8821 7062,9004 7060,9296 7094,9380 7127,9465 7055,9503 7055,9503 6711,9671 6829,10076 6829,10076 7077,10297 7636,10112 7737,10085 7838,10059 8081,10018 8081,10018 8202,10021 8744,9929 8821,9903 8898,9876 9035,9849 9133,9826 9195,9811 9221,9810 9246,9807 L 9251,9807 Z"/>
       </g>
      </g>
     </g>
    </g>
   </g>
  </g>
 </g>
</svg>