<?xml version="1.0" standalone="no"?>
<!DOCTYPE svg PUBLIC "-//W3C//DTD SVG 20010904//EN"
 "http://www.w3.org/TR/2001/REC-SVG-20010904/DTD/svg10.dtd">
<svg version="1.0" xmlns="http://www.w3.org/2000/svg"
 width="325.000000pt" height="590.000000pt" viewBox="0 0 325.000000 590.000000"
 preserveAspectRatio="xMidYMid meet">

<g transform="translate(0.000000,590.000000) scale(0.100000,-0.100000)"
fill="#000000" stroke="none">
<path d="M0 2950 l0 -2950 1625 0 1625 0 0 2950 0 2950 -1625 0 -1625 0 0
-2950z m1782 2894 c265 -29 462 -97 667 -229 144 -92 302 -266 394 -435 78
-142 163 -377 198 -545 88 -433 90 -475 89 -1435 -1 -832 3 -925 41 -1089 11
-46 18 -86 15 -88 -4 -5 -228 16 -233 21 -2 2 6 81 17 177 21 177 32 483 45
1239 6 377 0 489 -44 760 -27 167 -92 413 -136 515 -8 17 -28 64 -46 105 -54
127 -109 231 -175 332 -35 53 -70 103 -76 110 -7 7 -35 40 -61 73 -62 77 -187
190 -277 251 -167 113 -306 160 -502 170 -257 14 -494 -63 -737 -239 -153
-112 -347 -342 -436 -518 -63 -124 -133 -304 -159 -407 -31 -122 -32 -145 -9
-140 11 2 27 34 49 95 105 294 236 508 421 683 157 150 270 219 513 315 80 31
167 68 194 81 64 31 74 30 122 -6 21 -16 43 -30 47 -30 5 0 21 -8 35 -18 34
-23 122 -58 187 -73 146 -35 364 -196 526 -389 59 -71 139 -198 139 -222 0
-31 -34 -20 -70 23 -19 22 -61 61 -93 86 -32 25 -84 67 -115 95 -185 162 -499
317 -644 318 l-38 0 0 -355 c0 -220 4 -374 11 -407 31 -147 135 -271 283 -338
52 -24 86 -31 188 -39 152 -13 224 -39 338 -120 72 -51 170 -180 206 -270 l16
-42 43 26 c24 14 51 25 59 25 10 0 29 -26 48 -65 31 -63 32 -66 18 -107 -10
-27 -29 -53 -55 -73 l-40 -30 -1 -190 c-1 -164 -5 -207 -28 -314 l-26 -125 45
-87 c90 -174 131 -354 106 -468 -19 -91 -90 -171 -151 -171 -15 0 -20 -6 -20
-24 0 -24 1 -24 30 -9 54 26 110 -3 110 -58 0 -47 -16 -68 -60 -75 -37 -6 -38
-7 -33 -40 4 -22 0 -42 -11 -59 -14 -21 -24 -25 -67 -25 -65 0 -104 34 -96 84
5 30 3 33 -36 47 -38 13 -42 17 -45 52 -4 53 18 77 73 77 22 0 46 -5 53 -12 9
-9 12 -6 12 14 0 21 -6 28 -31 33 -38 9 -104 67 -128 112 l-17 34 -72 -83
c-39 -46 -98 -110 -131 -143 -32 -33 -62 -65 -65 -72 -6 -12 -25 -117 -45
-258 -7 -44 -14 -92 -16 -107 -4 -27 -3 -28 38 -28 46 -1 177 -29 244 -54 54
-20 169 -82 211 -113 222 -166 408 -463 477 -759 12 -53 45 -253 45 -275 0
-12 -61 -32 -69 -23 -5 5 -42 52 -83 104 -42 52 -87 105 -101 118 l-25 23 -43
-81 c-60 -112 -168 -227 -248 -265 -34 -16 -61 -34 -61 -39 0 -17 64 -93 98
-116 17 -13 32 -28 32 -34 0 -12 -117 -74 -123 -65 -1 2 -42 47 -90 100 -79
88 -92 98 -149 117 -35 11 -71 24 -80 27 -16 6 -18 0 -18 -47 0 -45 5 -60 25
-82 47 -51 47 -157 -1 -207 -31 -33 -63 -37 -100 -13 -60 40 -69 131 -19 206
20 30 25 50 25 100 l-1 63 -34 -60 c-19 -33 -47 -93 -62 -132 -15 -40 -31 -73
-36 -73 -4 0 -22 7 -39 16 -27 14 -30 19 -25 52 9 63 45 145 102 232 l54 83
-30 39 c-26 32 -33 52 -40 113 -14 128 -25 153 -98 230 -59 62 -137 171 -228
318 l-30 49 -59 -84 c-32 -45 -77 -106 -99 -134 -22 -28 -69 -88 -105 -134
-36 -46 -76 -94 -89 -106 l-25 -23 22 -44 c15 -31 22 -62 22 -103 0 -98 -9
-130 -51 -175 -35 -38 -37 -43 -24 -63 27 -42 46 -139 43 -216 l-3 -75 -30 0
-30 0 -6 80 c-3 44 -11 98 -17 121 -13 44 -50 105 -68 111 -15 5 9 -161 31
-212 21 -49 16 -121 -11 -158 -39 -54 -143 -40 -178 25 -17 31 -18 41 -8 75 6
21 28 58 48 81 41 49 69 134 53 164 -9 18 -12 17 -42 -14 -17 -18 -72 -85
-122 -148 -50 -63 -99 -116 -108 -118 -21 -4 -117 64 -117 83 0 8 47 67 105
132 58 65 105 121 105 124 0 3 -19 14 -42 25 -22 10 -58 31 -79 46 -22 16 -42
28 -45 28 -13 0 -97 87 -129 133 l-32 48 -34 -28 c-19 -15 -38 -33 -44 -39
-33 -38 -140 -124 -154 -124 -21 1 -101 74 -101 93 0 8 15 28 32 43 18 15 78
69 132 121 l99 94 -13 67 c-20 110 12 185 105 241 73 44 172 59 256 37 50 -12
66 -13 74 -3 6 6 46 51 88 98 42 48 77 89 77 92 0 3 -17 1 -37 -5 -50 -14
-236 -4 -293 16 -116 40 -194 90 -291 186 -53 52 -108 115 -122 140 -42 72
-102 201 -122 260 -10 30 -22 64 -26 75 -14 33 -56 225 -68 310 -7 44 -17 110
-23 147 -7 45 -9 137 -4 275 8 255 43 862 50 883 3 8 12 89 21 178 9 90 20
185 25 210 5 26 17 92 25 147 32 200 120 546 166 650 5 11 18 45 29 75 76 210
244 435 428 575 90 68 309 187 378 204 21 6 71 19 110 31 62 18 249 46 326 49
15 1 92 -6 170 -15z"/>
<path d="M1425 5423 c-69 -6 -127 -24 -242 -79 -128 -59 -251 -145 -335 -231
-178 -183 -319 -442 -382 -704 -40 -168 -49 -278 -43 -523 7 -285 37 -440 123
-633 l46 -103 -29 -45 c-15 -25 -33 -45 -39 -45 -10 0 -39 58 -90 175 -24 56
-62 200 -80 300 -21 123 -23 140 -32 295 l-7 125 -17 -45 c-43 -112 -55 -166
-78 -370 -14 -117 -7 -1022 8 -1127 56 -385 231 -706 442 -813 106 -54 212
-60 373 -24 l69 16 -7 32 c-11 49 -56 278 -61 306 -14 92 -23 186 -24 256 l0
81 -81 107 -82 107 -18 -53 c-19 -58 -75 -118 -109 -118 -14 0 -20 -7 -20 -21
0 -16 4 -19 18 -14 38 16 51 16 81 1 27 -15 31 -22 31 -59 0 -52 -13 -67 -59
-67 l-36 0 3 -48 c5 -65 -16 -84 -88 -80 -44 2 -56 8 -73 30 -16 22 -18 31 -9
57 11 30 10 30 -26 37 -50 9 -62 21 -62 58 0 52 24 76 75 76 24 0 47 -4 50
-10 10 -17 25 -11 25 9 0 10 -12 27 -27 36 -92 58 -133 141 -133 265 0 130 50
251 136 329 l51 47 -13 79 c-8 44 -17 158 -20 253 -6 149 -5 172 8 172 12 0
17 -18 22 -80 9 -116 68 -388 109 -510 42 -123 120 -277 181 -358 48 -63 83
-98 91 -90 3 2 18 40 34 84 16 43 64 169 106 279 116 301 136 357 131 362 -2
3 -15 -1 -28 -8 -14 -9 -59 -14 -118 -14 -91 0 -97 1 -141 32 -58 41 -98 90
-137 171 -47 96 -56 129 -40 145 10 12 17 6 41 -32 37 -59 140 -157 192 -184
87 -44 167 -40 248 14 47 31 40 18 135 259 14 36 33 79 42 95 19 35 58 45 76
21 10 -15 12 -15 18 -1 3 8 17 15 31 15 28 0 59 -43 90 -125 10 -27 51 -124
90 -215 40 -91 96 -219 125 -285 29 -66 63 -142 75 -170 12 -27 32 -79 43
-115 11 -36 32 -101 46 -145 14 -44 31 -116 37 -160 6 -44 13 -95 15 -113 3
-17 9 -32 13 -32 20 0 206 228 257 317 48 81 141 305 169 408 34 124 54 269
62 446 5 121 3 146 -17 215 -37 134 -82 213 -177 309 -94 96 -247 165 -369
165 -115 1 -261 54 -349 127 -61 52 -144 183 -145 232 -1 9 -16 -23 -34 -72
-34 -87 -78 -154 -154 -234 -65 -67 -117 -92 -239 -112 -159 -27 -307 -96
-370 -174 -10 -12 -17 -20 -16 -18 2 2 -4 9 -13 16 -15 10 -14 16 6 55 60 118
172 204 310 239 46 11 92 21 102 21 33 0 139 60 191 108 65 61 118 141 148
222 23 64 24 73 27 463 l3 397 -48 -2 c-26 -1 -66 -3 -88 -5z m1075 -1677 c0
-27 -100 -133 -168 -180 -38 -25 -73 -46 -78 -46 -5 0 -22 -7 -39 -16 -54 -29
-159 -54 -251 -61 l-91 -6 -12 48 c-7 26 -11 49 -9 50 19 15 55 25 93 25 44 0
146 23 249 57 56 18 203 92 244 122 32 24 62 27 62 7z m-1632 -46 c24 -16 64
-36 90 -45 26 -10 56 -21 67 -26 11 -5 67 -18 125 -29 137 -26 210 -49 217
-67 3 -8 0 -32 -7 -54 -11 -32 -18 -39 -39 -39 -71 1 -215 46 -301 95 -14 7
-39 21 -57 30 -48 25 -167 128 -171 148 -5 26 27 21 76 -13z m1632 -175 c0
-40 -26 -128 -58 -193 -48 -99 -122 -173 -198 -197 -65 -20 -159 -16 -209 9
-45 22 -115 85 -115 103 0 17 2 16 100 -11 62 -18 156 -21 196 -6 47 18 177
159 219 238 36 67 65 92 65 57z"/>
<path d="M1631 3405 c-1 -73 3 -115 8 -106 23 36 69 -22 136 -169 26 -58 69
-152 96 -209 27 -57 49 -107 49 -112 0 -4 5 -11 10 -14 12 -7 8 2 -116 315
-51 129 -114 276 -138 325 l-45 90 0 -120z"/>
<path d="M1535 3453 c-22 -59 -142 -367 -241 -615 -41 -104 -74 -190 -74 -193
0 -3 -14 -34 -30 -69 -54 -114 -86 -275 -77 -387 7 -80 18 -149 67 -419 17
-96 36 -197 41 -225 7 -41 5 -53 -9 -69 -9 -12 -91 -102 -182 -201 -240 -261
-249 -272 -242 -297 13 -51 163 -167 238 -182 27 -6 37 0 108 71 174 171 322
362 387 498 l34 70 3 845 c1 465 0 855 -3 868 -3 12 -9 22 -14 22 -16 0 -87
-225 -116 -365 -10 -44 -21 -91 -25 -105 -5 -14 -12 -44 -15 -67 -6 -41 -8
-43 -41 -43 l-34 0 0 53 c1 69 44 232 119 446 66 190 82 221 111 221 19 0 20
7 20 95 0 52 -2 95 -4 95 -2 0 -11 -21 -21 -47z"/>
<path d="M1656 3162 c-4 -6 47 -149 74 -207 56 -121 86 -223 95 -322 l5 -63
-39 0 c-38 0 -40 2 -47 38 -20 113 -37 178 -73 277 l-40 110 0 -701 c-1 -678
0 -704 20 -785 27 -108 103 -260 186 -369 77 -101 216 -248 321 -337 l52 -45
57 28 c76 39 176 133 207 197 36 70 34 100 -6 129 -18 12 -40 28 -48 35 -102
84 -207 159 -258 184 -34 17 -71 44 -82 59 -28 39 -59 115 -74 180 -16 70 -5
285 23 462 27 166 27 280 0 377 -12 42 -27 87 -35 101 -7 14 -83 168 -169 343
-86 174 -158 317 -160 317 -2 0 -6 -3 -9 -8z"/>
<path d="M2610 2768 c-17 -51 -52 -131 -76 -177 l-45 -85 30 -40 c39 -55 70
-76 117 -82 31 -4 44 0 65 18 14 13 29 34 34 46 18 58 0 236 -31 310 -30 70
-47 102 -54 102 -4 0 -22 -42 -40 -92z"/>
<path d="M648 2813 c-58 -60 -83 -124 -82 -214 1 -64 5 -84 28 -123 31 -53 51
-66 100 -66 39 0 70 25 92 76 22 52 18 95 -13 164 -17 36 -41 95 -54 133 -13
37 -26 67 -29 67 -3 0 -22 -17 -42 -37z"/>
<path d="M556 2221 c-3 -5 0 -13 7 -19 15 -13 42 1 33 17 -9 13 -33 15 -40 2z"/>
<path d="M736 2221 c-3 -5 0 -14 8 -20 10 -8 16 -8 25 2 6 8 8 17 4 20 -9 10
-31 9 -37 -2z"/>
<path d="M2720 2195 c-10 -12 -9 -16 5 -21 23 -9 40 10 22 25 -11 9 -17 8 -27
-4z"/>
<path d="M2532 2184 c4 -21 22 -23 26 -1 2 10 -3 17 -13 17 -10 0 -15 -6 -13
-16z"/>
<path d="M652 2118 c-8 -8 -9 -15 -1 -25 15 -17 25 -17 32 1 8 21 -16 39 -31
24z"/>
<path d="M2614 2079 c-10 -17 13 -36 27 -22 12 12 4 33 -11 33 -5 0 -12 -5
-16 -11z"/>
<path d="M2126 1619 c-30 -24 -33 -54 -9 -89 23 -33 28 -38 103 -94 72 -55 97
-74 219 -175 81 -66 86 -68 108 -54 28 19 83 11 133 -20 62 -38 107 -104 144
-215 17 -48 44 -97 86 -152 33 -44 62 -80 64 -80 6 0 -30 109 -60 185 -77 192
-184 357 -323 495 -119 118 -215 177 -334 204 -88 21 -99 20 -131 -5z"/>
<path d="M607 1170 c-68 -43 -85 -82 -68 -163 34 -172 161 -336 323 -418 71
-36 180 -62 220 -54 58 13 128 98 128 155 0 15 -5 16 -62 4 -92 -20 -128 -17
-189 13 -182 89 -315 314 -276 466 10 37 -15 36 -76 -3z m63 -159 c0 -87 91
-225 175 -265 27 -13 35 -23 35 -43 0 -25 -2 -26 -46 -19 -129 17 -220 124
-226 264 -3 63 10 92 43 92 14 0 19 -7 19 -29z m470 -363 c0 -22 -63 -78 -89
-78 -29 0 -61 26 -61 51 0 13 13 20 53 27 74 14 97 14 97 0z"/>
<path d="M2606 1060 c-4 -23 -15 -59 -25 -79 -10 -20 -26 -52 -36 -71 -27 -53
-163 -182 -220 -209 -27 -13 -57 -27 -66 -31 -9 -5 -44 -12 -78 -16 -57 -6
-61 -8 -55 -28 10 -32 75 -111 111 -135 26 -17 48 -21 107 -21 68 0 82 4 153
41 112 58 192 148 226 254 25 77 31 145 16 195 l-12 45 -10 -35 c-23 -85 -44
-126 -89 -176 -65 -70 -113 -101 -134 -83 -13 11 -10 18 24 53 70 73 112 176
112 271 0 60 -16 76 -24 25z"/>
</g>
</svg>
